<?xml version="1.0" encoding="utf-8"?>
<!-- Generator: Adobe Illustrator 25.0.1, SVG Export Plug-In . SVG Version: 6.00 Build 0)  -->
<svg version="1.1" id="Layer_1" xmlns="http://www.w3.org/2000/svg" xmlns:xlink="http://www.w3.org/1999/xlink" x="0px" y="0px"
	 viewBox="0 0 435.37 288.64" style="enable-background:new 0 0 435.37 288.64;" xml:space="preserve">
<style type="text/css">
	.st0{clip-path:url(#SVGID_2_);}
	.st1{fill:url(#SVGID_3_);}
	.st2{fill:#EEF1F4;stroke:#3F3F42;stroke-width:0.4685;stroke-miterlimit:10;}
	.st3{fill:#F7F6F6;stroke:#3F3F42;stroke-width:0.4685;stroke-miterlimit:10;}
	.st4{fill:#B3E2F6;stroke:#3F3F42;stroke-width:0.468;stroke-miterlimit:10;}
	.st5{fill:none;stroke:#000000;stroke-width:0.4685;stroke-miterlimit:10;}
	.st6{fill:#8C8C8C;}
	.st7{fill:#828185;}
	.st8{fill:none;stroke:#8C8C8C;stroke-width:0.2342;stroke-miterlimit:10;}
	.st9{fill:#6D7072;}
	.st10{fill:none;stroke:#6D7072;stroke-width:0.2342;stroke-miterlimit:10;}
	.st11{fill:none;stroke:#6D7072;stroke-width:0.2312;stroke-miterlimit:10;}
	.st12{fill:none;stroke:#6D7072;stroke-width:0.2424;stroke-miterlimit:10;}
	.st13{fill:none;stroke:#6D7072;stroke-width:0.1973;stroke-miterlimit:10;}
	.st14{fill:none;stroke:#8C8C8C;stroke-width:0.404;stroke-miterlimit:10;}
	.st15{fill:none;stroke:#8C8C8C;stroke-width:0.3877;stroke-miterlimit:10;}
	.st16{fill:none;stroke:#8C8C8C;stroke-width:0.5346;stroke-miterlimit:10;}
	.st17{fill:none;stroke:#828185;stroke-width:0.2342;stroke-miterlimit:10;}
	.st18{fill:#474B4D;}
	.st19{fill:none;stroke:#8F8E92;stroke-width:0.2342;stroke-miterlimit:10;}
	.st20{fill:none;stroke:#8F8E92;stroke-width:0.1856;stroke-miterlimit:10;}
	.st21{fill:none;stroke:#8F8E92;stroke-width:0.2483;stroke-miterlimit:10;}
	.st22{fill:none;stroke:#8F8E92;stroke-width:0.1356;stroke-miterlimit:10;}
</style>
<g>
	<defs>
		<rect id="SVGID_1_" x="0.3" y="-0.48" width="433.67" height="289.12"/>
	</defs>
	<use xlink:href="#SVGID_1_"  style="overflow:visible;fill:#2CAEE6;"/>
	<clipPath id="SVGID_2_">
		<use xlink:href="#SVGID_1_"  style="overflow:visible;"/>
	</clipPath>
	<g class="st0">
		
			<linearGradient id="SVGID_3_" gradientUnits="userSpaceOnUse" x1="331.7315" y1="358.9106" x2="331.5662" y2="89.6271" gradientTransform="matrix(0.9853 -0.1706 0.1706 0.9853 -143.1424 -39.1765)">
			<stop  offset="0.8095" style="stop-color:#B7B6BA"/>
			<stop  offset="0.8553" style="stop-color:#B7B6BA"/>
			<stop  offset="0.9218" style="stop-color:#E1E6E8"/>
			<stop  offset="0.946" style="stop-color:#D8DEE0"/>
			<stop  offset="0.9592" style="stop-color:#B0B3B6"/>
			<stop  offset="0.9833" style="stop-color:#9B9B9B"/>
		</linearGradient>
		<path class="st1" d="M-96.75,51.01c7.3-1.36,586.27-101.98,593.66-102.78c6.61,8.27,44.58,249.34,47.98,263.55
			c-0.25,14.85-9.55,15.52-19.83,18.71c-10.21,1.3-549.57,94.68-558.55,96.71s-17.72,1.52-20.27-13.74
			C-56.31,298.19-99.7,55.76-96.75,51.01z"/>
		<path class="st2" d="M-50.4,90.37c3.66-0.63,5.26,0.5,5.86,3.93c0.59,3.43,1.46,8.45,2.14,12.34s-0.56,5.36-5.36,6.2
			c-6.17,1.08-18.96,3.31-24.37,4.22c-5.27,0.88-6.32,0.23-7.19-5.05c-0.82-5.01-1.46-8.14-2.02-11.89
			c-0.19-1.24-0.79-3.7,2.99-5.01C-68.92,93.48-55.55,91.26-50.4,90.37z"/>
		<path class="st2" d="M-9.07,83.21c3.66-0.63,5.26,0.5,5.86,3.93c0.59,3.43,1.46,8.45,2.14,12.34s-0.56,5.36-5.36,6.2
			c-6.17,1.08-18.96,3.31-24.37,4.22c-5.27,0.88-6.32,0.23-7.19-5.05c-0.82-5.01-1.46-8.14-2.02-11.89
			c-0.19-1.24-0.79-3.7,2.99-5.01C-27.59,86.33-14.22,84.11-9.07,83.21z"/>
		<path class="st2" d="M33.29,75.88c3.66-0.63,5.26,0.5,5.86,3.93c0.59,3.43,1.46,8.45,2.14,12.34c0.67,3.88-0.56,5.36-5.36,6.2
			c-6.17,1.08-18.96,3.31-24.37,4.22c-5.27,0.88-6.32,0.23-7.19-5.05c-0.82-5.01-1.46-8.14-2.02-11.89
			c-0.19-1.24-0.79-3.7,2.99-5.01C14.76,78.99,28.13,76.77,33.29,75.88z"/>
		<path class="st2" d="M74.69,68.71c3.66-0.63,5.26,0.5,5.86,3.93c0.59,3.43,1.46,8.45,2.14,12.34s-0.56,5.36-5.36,6.2
			c-6.17,1.08-18.96,3.31-24.37,4.22c-5.27,0.88-6.32,0.23-7.19-5.05c-0.82-5.01-1.46-8.14-2.02-11.89
			c-0.19-1.24-0.79-3.7,2.99-5.01C56.16,71.83,69.53,69.61,74.69,68.71z"/>
		<path class="st2" d="M116.98,61.39c3.66-0.63,5.26,0.5,5.86,3.93c0.59,3.43,1.46,8.45,2.14,12.34s-0.56,5.36-5.36,6.2
			c-6.17,1.08-18.96,3.31-24.37,4.22c-5.27,0.88-6.32,0.23-7.19-5.05c-0.82-5.01-1.46-8.14-2.02-11.89
			c-0.19-1.24-0.79-3.7,2.99-5.01C98.45,64.5,111.82,62.28,116.98,61.39z"/>
		<path class="st2" d="M159.27,54.07c3.66-0.63,5.26,0.5,5.86,3.93c0.59,3.43,1.46,8.45,2.14,12.34c0.67,3.88-0.56,5.36-5.36,6.2
			c-6.17,1.08-18.96,3.31-24.37,4.22c-5.27,0.88-6.32,0.23-7.19-5.05c-0.82-5.01-1.46-8.14-2.02-11.89
			c-0.19-1.24-0.79-3.7,2.99-5.01C140.74,57.18,154.11,54.96,159.27,54.07z"/>
		<path class="st2" d="M200.56,46.92c3.66-0.63,5.26,0.5,5.86,3.93c0.59,3.43,1.46,8.45,2.14,12.34c0.67,3.88-0.56,5.36-5.36,6.2
			c-6.17,1.08-18.96,3.31-24.37,4.22c-5.27,0.88-6.32,0.23-7.19-5.05c-0.82-5.01-1.46-8.14-2.02-11.89
			c-0.19-1.24-0.79-3.7,2.99-5.01C182.03,50.03,195.4,47.81,200.56,46.92z"/>
		<path class="st2" d="M242.17,39.72c3.66-0.63,5.26,0.5,5.86,3.93s1.46,8.45,2.14,12.34c0.67,3.88-0.56,5.36-5.36,6.2
			c-6.17,1.08-18.96,3.31-24.37,4.22c-5.27,0.88-6.32,0.23-7.19-5.05c-0.82-5.01-1.46-8.14-2.02-11.89
			c-0.19-1.24-0.79-3.7,2.99-5.01C223.64,42.83,237.01,40.61,242.17,39.72z"/>
		<path class="st3" d="M283.93,32.49c3.66-0.63,5.26,0.5,5.86,3.93s1.46,8.45,2.14,12.34s-0.56,5.36-5.36,6.2
			c-6.17,1.08-18.96,3.31-24.37,4.22c-5.27,0.88-6.32,0.23-7.19-5.05c-0.82-5.01-1.46-8.14-2.02-11.89
			c-0.19-1.24-0.79-3.7,2.99-5.01C265.41,35.6,278.78,33.38,283.93,32.49z"/>
		<path class="st2" d="M325.78,25.24c3.66-0.63,5.26,0.5,5.86,3.93c0.59,3.43,1.46,8.45,2.14,12.34s-0.56,5.36-5.36,6.2
			c-6.17,1.08-18.96,3.31-24.37,4.22c-5.27,0.88-6.32,0.23-7.19-5.05c-0.82-5.01-1.46-8.14-2.02-11.89
			c-0.19-1.24-0.79-3.7,2.99-5.01C307.25,28.35,320.62,26.13,325.78,25.24z"/>
		<path class="st2" d="M367.66,17.99c3.66-0.63,5.26,0.5,5.86,3.93s1.46,8.45,2.14,12.34c0.67,3.88-0.56,5.36-5.36,6.2
			c-6.17,1.08-18.96,3.31-24.37,4.22c-5.27,0.88-6.32,0.23-7.19-5.05c-0.82-5.01-1.46-8.14-2.02-11.89
			c-0.19-1.24-0.79-3.7,2.99-5.01C349.14,21.1,362.51,18.88,367.66,17.99z"/>
		<path class="st2" d="M409.55,10.74c3.66-0.63,5.26,0.5,5.86,3.93s1.46,8.45,2.14,12.34c0.67,3.88-0.56,5.36-5.36,6.2
			c-6.17,1.08-18.96,3.31-24.37,4.22c-5.27,0.88-6.32,0.23-7.19-5.05c-0.82-5.01-1.46-8.14-2.02-11.89
			c-0.19-1.24-0.79-3.7,2.99-5.01C391.02,13.85,404.39,11.63,409.55,10.74z"/>
		<path class="st2" d="M451.47,3.48c3.66-0.63,5.26,0.5,5.86,3.93s1.46,8.45,2.14,12.34s-0.56,5.36-5.36,6.2
			c-6.17,1.08-18.96,3.31-24.37,4.22c-5.27,0.88-6.32,0.23-7.19-5.05c-0.82-5.01-1.46-8.14-2.02-11.89
			c-0.19-1.24-0.79-3.7,2.99-5.01C432.94,6.59,446.31,4.37,451.47,3.48z"/>
		<path class="st2" d="M493.39-3.78c3.66-0.63,5.26,0.5,5.86,3.93s1.46,8.45,2.14,12.34c0.67,3.88-0.56,5.36-5.36,6.2
			c-6.17,1.08-18.96,3.31-24.37,4.22c-5.27,0.88-6.32,0.23-7.19-5.05c-0.82-5.01-1.46-8.14-2.02-11.89
			c-0.19-1.24-0.79-3.7,2.99-5.01C474.87-0.67,488.24-2.89,493.39-3.78z"/>
		<path class="st2" d="M-73.4,122.44c11.43-1.98,20.11-3.48,23.46-4.06c3.35-0.58,6.93-1.67,7.87,1.93
			c2.26,11.81,3.02,16.16,4.42,23.51c0.42,2.34,1.73,6.73-2.89,7.52c-5.18,0.89-24.6,4.26-27.57,4.77
			c-3.66,0.63-3.88-2.39-4.57-5.72c-0.69-3.33-3.18-18.12-3.64-21.02C-76.78,126.48-78.43,123.31-73.4,122.44z"/>
		<path class="st2" d="M-33.19,115.48c11.43-1.98,20.11-3.48,23.46-4.06s6.93-1.67,7.87,1.93c2.26,11.81,3.02,16.16,4.42,23.51
			c0.42,2.34,1.73,6.73-2.89,7.52c-5.18,0.89-24.6,4.26-27.57,4.77c-3.66,0.63-3.88-2.39-4.57-5.72
			c-0.69-3.33-3.18-18.12-3.64-21.02S-38.21,116.35-33.19,115.48z"/>
		<path class="st2" d="M7.03,108.51c11.43-1.98,20.11-3.48,23.46-4.06s6.93-1.67,7.87,1.93c2.26,11.81,3.02,16.16,4.42,23.51
			c0.42,2.34,1.73,6.73-2.89,7.52c-5.18,0.89-24.6,4.26-27.57,4.77c-3.66,0.63-3.88-2.39-4.57-5.72s-3.18-18.12-3.64-21.02
			C3.65,112.55,2,109.38,7.03,108.51z"/>
		<path class="st2" d="M47.93,101.43c11.43-1.98,20.11-3.48,23.46-4.06s6.93-1.67,7.87,1.93c2.26,11.81,3.02,16.16,4.42,23.51
			c0.42,2.34,1.73,6.73-2.89,7.52c-5.18,0.89-24.6,4.26-27.57,4.77c-3.66,0.63-3.88-2.39-4.57-5.72
			c-0.69-3.33-3.18-18.12-3.64-21.02C44.55,105.47,42.91,102.3,47.93,101.43z"/>
		<path class="st2" d="M87.81,94.53c11.43-1.98,20.11-3.48,23.46-4.06c3.35-0.58,6.93-1.67,7.87,1.93
			c2.26,11.81,3.02,16.16,4.42,23.51c0.42,2.34,1.73,6.73-2.89,7.52c-5.18,0.89-24.6,4.26-27.57,4.77
			c-3.66,0.63-3.88-2.39-4.57-5.72s-3.18-18.12-3.64-21.02C84.43,98.57,82.78,95.4,87.81,94.53z"/>
		<path class="st2" d="M128.48,87.49c11.43-1.98,20.11-3.48,23.46-4.06c3.35-0.58,6.93-1.67,7.87,1.93
			c2.26,11.81,3.02,16.16,4.42,23.51c0.42,2.34,1.73,6.73-2.89,7.52c-5.18,0.89-24.6,4.26-27.57,4.77
			c-3.66,0.63-3.88-2.39-4.57-5.72s-3.18-18.12-3.64-21.02S123.46,88.36,128.48,87.49z"/>
		<path class="st2" d="M169.08,80.46c11.43-1.98,20.11-3.48,23.46-4.06c3.35-0.58,6.93-1.67,7.87,1.93
			c2.26,11.81,3.02,16.16,4.42,23.51c0.42,2.34,1.73,6.73-2.89,7.52c-5.18,0.89-24.6,4.26-27.57,4.77
			c-3.66,0.63-3.88-2.39-4.57-5.72c-0.69-3.33-3.18-18.12-3.64-21.02S164.06,81.33,169.08,80.46z"/>
		<path class="st2" d="M209.68,73.43c11.43-1.98,20.11-3.48,23.46-4.06s6.93-1.67,7.87,1.93c2.26,11.81,3.02,16.16,4.42,23.51
			c0.42,2.34,1.73,6.73-2.89,7.52c-5.18,0.89-24.6,4.26-27.57,4.77c-3.66,0.63-3.88-2.39-4.57-5.72
			c-0.69-3.33-3.18-18.12-3.64-21.02C206.3,77.46,204.66,74.3,209.68,73.43z"/>
		<path class="st2" d="M249.92,67.13c11.43-1.98,20.11-3.48,23.46-4.06c3.35-0.58,6.93-1.67,7.87,1.93
			c2.26,11.81,3.02,16.16,4.42,23.51c0.42,2.34,1.73,6.73-2.89,7.52c-5.18,0.89-24.6,4.26-27.57,4.77
			c-3.66,0.63-3.88-2.39-4.57-5.72c-0.69-3.33-3.18-18.12-3.64-21.02C246.53,71.16,244.89,68,249.92,67.13z"/>
		<path class="st2" d="M290.04,60.18c11.43-1.98,20.11-3.48,23.46-4.06s6.93-1.67,7.87,1.93c2.26,11.81,3.02,16.16,4.42,23.51
			c0.42,2.34,1.73,6.73-2.89,7.52c-5.18,0.89-24.6,4.26-27.57,4.77c-3.66,0.63-3.88-2.39-4.57-5.72
			c-0.69-3.33-3.18-18.12-3.64-21.02C286.65,64.22,285.01,61.05,290.04,60.18z"/>
		<path class="st2" d="M330.94,53.1c11.43-1.98,20.11-3.48,23.46-4.06c3.35-0.58,6.93-1.67,7.87,1.93
			c2.26,11.81,3.02,16.16,4.42,23.51c0.42,2.34,1.73,6.73-2.89,7.52c-5.18,0.89-24.6,4.26-27.57,4.77
			c-3.66,0.63-3.88-2.39-4.57-5.72s-3.18-18.12-3.64-21.02S325.91,53.97,330.94,53.1z"/>
		<path class="st2" d="M371.28,45.53c11.43-1.98,20.11-3.48,23.46-4.06c3.35-0.58,6.93-1.67,7.87,1.93
			c2.26,11.81,3.02,16.16,4.42,23.51c0.42,2.34,1.73,6.73-2.89,7.52c-5.18,0.89-24.6,4.26-27.57,4.77
			c-3.66,0.63-3.88-2.39-4.57-5.72s-3.18-18.12-3.64-21.02C367.9,49.56,366.26,46.4,371.28,45.53z"/>
		<path class="st2" d="M411.68,39.12c11.43-1.98,20.11-3.48,23.46-4.06c3.35-0.58,6.93-1.67,7.87,1.93
			c2.26,11.81,3.02,16.16,4.42,23.51c0.42,2.34,1.73,6.73-2.89,7.52c-5.18,0.89-24.6,4.26-27.57,4.77
			c-3.66,0.63-3.88-2.39-4.57-5.72c-0.69-3.33-3.18-18.12-3.64-21.02C408.3,43.16,406.66,39.99,411.68,39.12z"/>
		<path class="st2" d="M454.21,31.17c17.96-3.11,31.6-5.47,36.87-6.38c5.27-0.91,10.93-2.36,12.05,1.21
			c2.38,11.79,3.15,16.14,4.62,23.48c0.42,2.34,2.05,6.67-5.22,7.93c-8.14,1.41-38.67,6.7-43.33,7.5c-5.75,0.99-5.8-2.06-6.55-5.38
			S449.43,41.41,449,38.5S446.31,32.54,454.21,31.17z"/>
		<path class="st2" d="M511.25,95.54c-11.42,2.01-20.1,3.54-23.45,4.13s-6.92,1.69-7.87-1.91c-2.29-11.8-3.07-16.16-4.49-23.5
			c-0.42-2.34-1.75-6.72,2.87-7.53c5.18-0.91,24.59-4.33,27.56-4.85c3.65-0.64,3.89,2.38,4.58,5.71s3.23,18.11,3.7,21.01
			C514.61,91.49,516.27,94.66,511.25,95.54z"/>
		<path class="st2" d="M471.05,102.61c-11.42,2.01-20.1,3.54-23.45,4.13s-6.92,1.69-7.87-1.91c-2.29-11.8-3.07-16.16-4.49-23.5
			c-0.42-2.34-1.75-6.72,2.87-7.53c5.18-0.91,24.59-4.33,27.56-4.85c3.65-0.64,3.89,2.38,4.58,5.71s3.23,18.11,3.7,21.01
			S476.07,101.73,471.05,102.61z"/>
		<path class="st2" d="M430.85,109.69c-11.42,2.01-20.1,3.54-23.45,4.13s-6.92,1.69-7.87-1.91c-2.29-11.8-3.07-16.16-4.49-23.5
			c-0.42-2.34-1.75-6.72,2.87-7.53c5.18-0.91,24.59-4.33,27.56-4.85c3.65-0.64,3.89,2.38,4.58,5.71c0.7,3.33,3.23,18.11,3.7,21.01
			C434.22,105.64,435.87,108.8,430.85,109.69z"/>
		<path class="st2" d="M389.97,116.88c-11.42,2.01-20.1,3.54-23.45,4.13s-6.92,1.69-7.87-1.91c-2.29-11.8-3.07-16.16-4.49-23.5
			c-0.42-2.34-1.75-6.72,2.87-7.53c5.18-0.91,24.59-4.33,27.56-4.85c3.65-0.64,3.89,2.38,4.58,5.71c0.7,3.33,3.23,18.11,3.7,21.01
			C393.34,112.83,394.99,116,389.97,116.88z"/>
		<path class="st4" d="M350.11,123.89c-11.42,2.01-20.1,3.54-23.45,4.13c-3.35,0.59-6.92,1.69-7.87-1.91
			c-2.29-11.8-3.07-16.16-4.49-23.5c-0.42-2.34-1.75-6.72,2.87-7.53c5.18-0.91,24.59-4.33,27.56-4.85c3.65-0.64,3.89,2.38,4.58,5.71
			c0.7,3.33,3.23,18.11,3.7,21.01C353.48,119.85,355.14,123.01,350.11,123.89z"/>
		<path class="st4" d="M309.46,131.05c-11.42,2.01-20.1,3.54-23.45,4.13s-6.92,1.69-7.87-1.91c-2.29-11.8-3.07-16.16-4.49-23.5
			c-0.42-2.34-1.75-6.72,2.87-7.53c5.18-0.91,24.59-4.33,27.56-4.85c3.65-0.64,3.89,2.38,4.58,5.71s3.23,18.11,3.7,21.01
			C312.83,127,314.48,130.16,309.46,131.05z"/>
		<path class="st4" d="M268.88,138.19c-11.42,2.01-20.1,3.54-23.45,4.13c-3.35,0.59-6.92,1.69-7.87-1.91
			c-2.29-11.8-3.07-16.16-4.49-23.5c-0.42-2.34-1.75-6.72,2.87-7.53c5.18-0.91,24.59-4.33,27.56-4.85c3.65-0.64,3.89,2.38,4.58,5.71
			c0.7,3.33,3.23,18.11,3.7,21.01C272.25,134.14,273.9,137.3,268.88,138.19z"/>
		<path class="st4" d="M228.29,145.33c-11.42,2.01-20.1,3.54-23.45,4.13c-3.35,0.59-6.92,1.69-7.87-1.91
			c-2.29-11.8-3.07-16.16-4.49-23.5c-0.42-2.34-1.75-6.72,2.87-7.53c5.18-0.91,24.59-4.33,27.56-4.85c3.65-0.64,3.89,2.38,4.58,5.71
			s3.23,18.11,3.7,21.01C231.66,141.28,233.32,144.44,228.29,145.33z"/>
		<path class="st4" d="M188.08,151.74c-11.42,2.01-20.1,3.54-23.45,4.13c-3.35,0.59-6.92,1.69-7.87-1.91
			c-2.29-11.8-3.07-16.16-4.49-23.5c-0.42-2.34-1.75-6.72,2.87-7.53c5.18-0.91,24.59-4.33,27.56-4.85c3.65-0.64,3.89,2.38,4.58,5.71
			s3.23,18.11,3.7,21.01C191.45,147.69,193.11,150.85,188.08,151.74z"/>
		<path class="st4" d="M147.98,158.79c-11.42,2.01-20.1,3.54-23.45,4.13s-6.92,1.69-7.87-1.91c-2.29-11.8-3.07-16.16-4.49-23.5
			c-0.42-2.34-1.75-6.72,2.87-7.53c5.18-0.91,24.59-4.33,27.56-4.85c3.65-0.64,3.89,2.38,4.58,5.71s3.23,18.11,3.7,21.01
			C151.35,154.75,153,157.91,147.98,158.79z"/>
		<path class="st2" d="M107.1,165.99c-11.42,2.01-20.1,3.54-23.45,4.13s-6.92,1.69-7.87-1.91c-2.29-11.8-3.07-16.16-4.49-23.5
			c-0.42-2.34-1.75-6.72,2.87-7.53c5.18-0.91,24.59-4.33,27.56-4.85c3.65-0.64,3.89,2.38,4.58,5.71s3.23,18.11,3.7,21.01
			C110.47,161.94,112.12,165.1,107.1,165.99z"/>
		<path class="st2" d="M66.77,173.67c-11.42,2.01-20.1,3.54-23.45,4.13c-3.35,0.59-6.92,1.69-7.87-1.91
			c-2.29-11.8-3.07-16.16-4.49-23.5c-0.42-2.34-1.75-6.72,2.87-7.53c5.18-0.91,24.59-4.33,27.56-4.85c3.65-0.64,3.89,2.38,4.58,5.71
			c0.7,3.33,3.23,18.11,3.7,21.01C70.14,169.62,71.8,172.79,66.77,173.67z"/>
		<path class="st2" d="M26.39,180.19c-11.42,2.01-20.1,3.54-23.45,4.13s-6.92,1.69-7.87-1.91c-2.29-11.8-3.07-16.16-4.49-23.5
			c-0.42-2.34-1.75-6.72,2.87-7.53c5.18-0.91,24.59-4.33,27.56-4.85c3.65-0.64,3.89,2.38,4.58,5.71s3.23,18.11,3.7,21.01
			C29.76,176.14,31.41,179.3,26.39,180.19z"/>
		<path class="st2" d="M-16.12,188.26c-17.95,3.16-31.59,5.56-36.85,6.48s-10.93,2.39-12.05-1.18c-2.41-11.78-3.19-16.13-4.68-23.47
			c-0.43-2.34-2.07-6.67,5.2-7.94c8.14-1.43,38.65-6.8,43.31-7.62c5.74-1.01,5.81,2.04,6.57,5.36c0.76,3.32,3.26,18.11,3.7,21.01
			C-10.48,183.81-8.22,186.87-16.12,188.26z"/>
		<path class="st2" d="M447.51,147.89c-11.42,2.01-20.1,3.54-23.45,4.13s-6.92,1.69-7.87-1.91c-2.29-11.8-3.07-16.16-4.49-23.5
			c-0.42-2.34-1.75-6.72,2.87-7.53c5.18-0.91,24.59-4.33,27.56-4.85c3.65-0.64,3.89,2.38,4.58,5.71c0.7,3.33,3.23,18.11,3.7,21.01
			C450.88,143.85,452.53,147.01,447.51,147.89z"/>
		<path class="st2" d="M407.59,154.8c-11.42,2.01-20.1,3.54-23.45,4.13c-3.35,0.59-6.92,1.69-7.87-1.91
			c-2.29-11.8-3.07-16.16-4.49-23.5c-0.42-2.34-1.75-6.72,2.87-7.53c5.18-0.91,24.59-4.33,27.56-4.85c3.65-0.64,3.89,2.38,4.58,5.71
			s3.23,18.11,3.7,21.01C410.96,150.76,412.62,153.92,407.59,154.8z"/>
		<path class="st2" d="M366.76,161.87c-11.42,2.01-20.1,3.54-23.45,4.13s-6.92,1.69-7.87-1.91c-2.29-11.8-3.07-16.16-4.49-23.5
			c-0.42-2.34-1.75-6.72,2.87-7.53c5.18-0.91,24.59-4.33,27.56-4.85c3.65-0.64,3.89,2.38,4.58,5.71c0.7,3.33,3.23,18.11,3.7,21.01
			C370.13,157.83,371.79,160.99,366.76,161.87z"/>
		<path class="st4" d="M326.36,168.87c-11.42,2.01-20.1,3.54-23.45,4.13c-3.35,0.59-6.92,1.69-7.87-1.91
			c-2.29-11.8-3.07-16.16-4.49-23.5c-0.42-2.34-1.75-6.72,2.87-7.53c5.18-0.91,24.59-4.33,27.56-4.85c3.65-0.64,3.89,2.38,4.58,5.71
			s3.23,18.11,3.7,21.01C329.73,164.82,331.38,167.98,326.36,168.87z"/>
		<path class="st4" d="M286.22,175.82c-11.42,2.01-20.1,3.54-23.45,4.13s-6.92,1.69-7.87-1.91c-2.29-11.8-3.07-16.16-4.49-23.5
			c-0.42-2.34-1.75-6.72,2.87-7.53c5.18-0.91,24.59-4.33,27.56-4.85c3.65-0.64,3.89,2.38,4.58,5.71s3.23,18.11,3.7,21.01
			C289.59,171.77,291.24,174.93,286.22,175.82z"/>
		<path class="st4" d="M245.66,182.84c-11.42,2.01-20.1,3.54-23.45,4.13c-3.35,0.59-6.92,1.69-7.87-1.91
			c-2.29-11.8-3.07-16.16-4.49-23.5c-0.42-2.34-1.75-6.72,2.87-7.53c5.18-0.91,24.59-4.33,27.56-4.85c3.65-0.64,3.89,2.38,4.58,5.71
			s3.23,18.11,3.7,21.01C249.03,178.79,250.68,181.96,245.66,182.84z"/>
		<path class="st2" d="M165.27,196.76c-11.42,2.01-20.1,3.54-23.45,4.13c-3.35,0.59-6.92,1.69-7.87-1.91
			c-2.29-11.8-3.07-16.16-4.49-23.5c-0.42-2.34-1.75-6.72,2.87-7.53c5.18-0.91,24.59-4.33,27.56-4.85c3.65-0.64,3.89,2.38,4.58,5.71
			c0.7,3.33,3.23,18.11,3.7,21.01C168.64,192.71,170.3,195.87,165.27,196.76z"/>
		<path class="st2" d="M124.72,204.23c-11.42,2.01-20.1,3.54-23.45,4.13s-6.92,1.69-7.87-1.91c-2.29-11.8-3.07-16.16-4.49-23.5
			c-0.42-2.34-1.75-6.72,2.87-7.53c5.18-0.91,24.59-4.33,27.56-4.85c3.65-0.64,3.89,2.38,4.58,5.71c0.7,3.33,3.23,18.11,3.7,21.01
			C128.09,200.19,129.74,203.35,124.72,204.23z"/>
		<path class="st2" d="M83.99,211.25c-11.42,2.01-20.1,3.54-23.45,4.13c-3.35,0.59-6.92,1.69-7.87-1.91
			c-2.29-11.8-3.07-16.16-4.49-23.5c-0.42-2.34-1.75-6.72,2.87-7.53c5.18-0.91,24.59-4.33,27.56-4.85c3.65-0.64,3.89,2.38,4.58,5.71
			c0.7,3.33,3.23,18.11,3.7,21.01C87.35,207.2,89.01,210.36,83.99,211.25z"/>
		<path class="st2" d="M43.75,218.21c-11.42,2.01-20.1,3.54-23.45,4.13s-6.92,1.69-7.87-1.91c-2.29-11.8-3.07-16.16-4.49-23.5
			c-0.42-2.34-1.75-6.72,2.87-7.53c5.18-0.91,24.59-4.33,27.56-4.85c3.65-0.64,3.89,2.38,4.58,5.71c0.7,3.33,3.23,18.11,3.7,21.01
			S48.77,217.33,43.75,218.21z"/>
		<path class="st2" d="M-0.2,226.24c-21.27,3.74-37.44,6.59-43.68,7.69s-12.97,2.75-14.18-0.8c-2.47-11.77-3.26-16.12-4.78-23.45
			c-0.43-2.34-2.23-6.64,6.39-8.15c9.65-1.69,45.81-8.06,51.34-9.03c6.81-1.2,6.79,1.87,7.58,5.18c0.79,3.31,3.09,14.81,3.59,17.71
			C6.59,218.53,9.16,224.59-0.2,226.24z"/>
		<path class="st2" d="M514.46,137.13c-21.27,3.74-37.44,6.59-43.68,7.69c-6.24,1.1-12.97,2.75-14.18-0.8
			c-2.47-11.77-3.26-16.12-4.78-23.45c-0.43-2.34-2.23-6.64,6.39-8.15c9.65-1.69,45.81-8.06,51.34-9.03
			c6.81-1.2,6.79,1.87,7.58,5.18c0.79,3.31,3.09,14.81,3.59,17.71C521.25,129.43,523.82,135.48,514.46,137.13z"/>
		<path class="st2" d="M434.86,189.92c-11.42,2.01-20.1,3.54-23.45,4.13c-3.35,0.59-6.92,1.69-7.87-1.91
			c-2.29-11.8-3.07-16.16-4.49-23.5c-0.42-2.34-1.75-6.72,2.87-7.53c5.18-0.91,24.59-4.33,27.56-4.85c3.65-0.64,3.89,2.38,4.58,5.71
			s3.23,18.11,3.7,21.01C438.22,185.87,439.88,189.04,434.86,189.92z"/>
		<path class="st2" d="M394.03,196.99c-11.42,2.01-20.1,3.54-23.45,4.13c-3.35,0.59-6.92,1.69-7.87-1.91
			c-2.29-11.8-3.07-16.16-4.49-23.5c-0.42-2.34-1.75-6.72,2.87-7.53c5.18-0.91,24.59-4.33,27.56-4.85c3.65-0.64,3.89,2.38,4.58,5.71
			c0.7,3.33,3.23,18.11,3.7,21.01C397.4,192.94,399.05,196.11,394.03,196.99z"/>
		<path class="st2" d="M353.63,203.99c-11.42,2.01-20.1,3.54-23.45,4.13s-6.92,1.69-7.87-1.91c-2.29-11.8-3.07-16.16-4.49-23.5
			c-0.42-2.34-1.75-6.72,2.87-7.53c5.18-0.91,24.59-4.33,27.56-4.85c3.65-0.64,3.89,2.38,4.58,5.71c0.7,3.33,3.23,18.11,3.7,21.01
			C356.99,199.94,358.65,203.1,353.63,203.99z"/>
		<path class="st2" d="M313.48,210.94c-11.42,2.01-20.1,3.54-23.45,4.13s-6.92,1.69-7.87-1.91c-2.29-11.8-3.07-16.16-4.49-23.5
			c-0.42-2.34-1.75-6.72,2.87-7.53c5.18-0.91,24.59-4.33,27.56-4.85c3.65-0.64,3.89,2.38,4.58,5.71s3.23,18.11,3.7,21.01
			C316.85,206.89,318.51,210.05,313.48,210.94z"/>
		<path class="st2" d="M273.38,217.88c-11.42,2.01-20.1,3.54-23.45,4.13c-3.35,0.59-6.92,1.69-7.87-1.91
			c-2.29-11.8-3.07-16.16-4.49-23.5c-0.42-2.34-1.75-6.72,2.87-7.53c5.18-0.91,24.59-4.33,27.56-4.85c3.65-0.64,3.89,2.38,4.58,5.71
			s3.23,18.11,3.7,21.01C276.75,213.83,278.41,216.99,273.38,217.88z"/>
		<path class="st2" d="M232.37,224.98c-11.42,2.01-20.1,3.54-23.45,4.13c-3.35,0.59-6.92,1.69-7.87-1.91
			c-2.29-11.8-3.07-16.16-4.49-23.5c-0.42-2.34-1.75-6.72,2.87-7.53c5.18-0.91,24.59-4.33,27.56-4.85c3.65-0.64,3.89,2.38,4.58,5.71
			c0.7,3.33,3.23,18.11,3.7,21.01C235.74,220.93,237.39,224.1,232.37,224.98z"/>
		<path class="st2" d="M192.54,231.88c-11.42,2.01-20.1,3.54-23.45,4.13c-3.35,0.59-6.92,1.69-7.87-1.91
			c-2.29-11.8-3.07-16.16-4.49-23.5c-0.42-2.34-1.75-6.72,2.87-7.53c5.18-0.91,24.59-4.33,27.56-4.85c3.65-0.64,3.89,2.38,4.58,5.71
			s3.23,18.11,3.7,21.01C195.91,227.83,197.56,230.99,192.54,231.88z"/>
		<path class="st2" d="M151.99,239.35c-11.42,2.01-20.1,3.54-23.45,4.13c-3.35,0.59-6.92,1.69-7.87-1.91
			c-2.29-11.8-3.07-16.16-4.49-23.5c-0.42-2.34-1.75-6.72,2.87-7.53c5.18-0.91,24.59-4.33,27.56-4.85c3.65-0.64,3.89,2.38,4.58,5.71
			s3.23,18.11,3.7,21.01C155.35,235.31,157.01,238.47,151.99,239.35z"/>
		<path class="st2" d="M111.25,246.36c-11.42,2.01-20.1,3.54-23.45,4.13s-6.92,1.69-7.87-1.91c-2.29-11.8-3.07-16.16-4.49-23.5
			c-0.42-2.34-1.75-6.72,2.87-7.53c5.18-0.91,24.59-4.33,27.56-4.85c3.65-0.64,3.89,2.38,4.58,5.71c0.7,3.33,3.23,18.11,3.7,21.01
			S116.28,245.48,111.25,246.36z"/>
		<path class="st2" d="M71.01,253.33c-11.42,2.01-20.1,3.54-23.45,4.13c-3.35,0.59-6.92,1.69-7.87-1.91
			c-2.29-11.8-3.07-16.16-4.49-23.5c-0.42-2.34-1.75-6.72,2.87-7.53c5.18-0.91,24.59-4.33,27.56-4.85c3.65-0.64,3.89,2.38,4.58,5.71
			c0.7,3.33,3.23,18.11,3.7,21.01C74.38,249.28,76.04,252.45,71.01,253.33z"/>
		<path class="st5" d="M-12.28,314.07c-11.42,2.01-20.1,3.54-23.45,4.13c-3.35,0.59-6.91,1.76-7.96-2.44
			c-2.63-13.74-3.54-18.81-5.17-27.36c-0.49-2.72-1.95-7.84,2.68-8.65c5.18-0.91,24.59-4.33,27.56-4.85
			c3.65-0.64,3.97,2.87,4.76,6.74c0.79,3.88,3.75,21.08,4.3,24.45C-9.01,309.47-7.26,313.18-12.28,314.07z"/>
		<path class="st5" d="M-12.28,314.07c-11.42,2.01-20.1,3.54-23.45,4.13c-3.35,0.59-6.91,1.76-7.96-2.44
			c-2.63-13.74-3.54-18.81-5.17-27.36c-0.49-2.72-1.95-7.84,2.68-8.65c5.18-0.91,24.59-4.33,27.56-4.85
			c3.65-0.64,3.97,2.87,4.76,6.74c0.79,3.88,3.75,21.08,4.3,24.45C-9.01,309.47-7.26,313.18-12.28,314.07z"/>
		<path class="st5" d="M-12.28,314.07c-11.42,2.01-20.1,3.54-23.45,4.13c-3.35,0.59-6.91,1.76-7.96-2.44
			c-2.63-13.74-3.54-18.81-5.17-27.36c-0.49-2.72-1.95-7.84,2.68-8.65c5.18-0.91,24.59-4.33,27.56-4.85
			c3.65-0.64,3.97,2.87,4.76,6.74c0.79,3.88,3.75,21.08,4.3,24.45C-9.01,309.47-7.26,313.18-12.28,314.07z"/>
		<path class="st2" d="M-12.28,314.07c-11.42,2.01-20.1,3.54-23.45,4.13c-3.35,0.59-6.91,1.76-7.96-2.44
			c-2.63-13.74-3.54-18.81-5.17-27.36c-0.49-2.72-1.95-7.84,2.68-8.65c5.18-0.91,24.59-4.33,27.56-4.85
			c3.65-0.64,3.97,2.87,4.76,6.74c0.79,3.88,3.75,21.08,4.3,24.45C-9.01,309.47-7.26,313.18-12.28,314.07z"/>
		<path class="st2" d="M24.47,262.02c-27.9,4.91-49.11,8.65-57.3,10.08c-9.94,1.74-18.46,4.63-19.83-3.26
			c-2.59-11.75-1.98-12.9-3.57-20.21c-0.44-2.34-1.85-7.55,4.89-8.72c12.66-2.19,65.41-11.31,72.67-12.58
			c8.93-1.57,9.06,6.59,9.57,9.52c0.75,4.33,1.8,10.99,2.29,13.88C33.73,253.89,36.75,259.86,24.47,262.02z"/>
		<path class="st2" d="M519.75,176.27c-27.9,4.91-49.11,8.65-57.3,10.08c-9.94,1.74-18.46,4.63-19.83-3.26
			c-2.59-11.75-1.98-12.9-3.57-20.21c-0.44-2.34-1.85-7.55,4.89-8.72c12.66-2.19,65.41-11.31,72.67-12.58
			c8.93-1.57,9.06,6.59,9.57,9.52c0.75,4.33,1.8,10.99,2.29,13.88C529.01,168.13,532.03,174.11,519.75,176.27z"/>
		<path class="st2" d="M27.76,307.13c-11.42,2.01-20.1,3.54-23.45,4.13c-3.35,0.59-6.91,1.76-7.96-2.44
			c-2.63-13.74-3.54-18.81-5.17-27.36c-0.49-2.72-1.95-7.84,2.68-8.65c5.18-0.91,24.59-4.33,27.56-4.85
			c3.65-0.64,3.97,2.87,4.76,6.74c0.79,3.88,3.75,21.08,4.3,24.45C31.03,302.54,32.78,306.25,27.76,307.13z"/>
		<path class="st2" d="M69.07,299.98c-11.42,2.01-20.1,3.54-23.45,4.13c-3.35,0.59-6.91,1.76-7.96-2.44
			c-2.63-13.74-3.54-18.81-5.17-27.36c-0.49-2.72-1.95-7.84,2.68-8.65c5.18-0.91,24.59-4.33,27.56-4.85
			c3.65-0.64,3.97,2.87,4.76,6.74c0.79,3.88,3.75,21.08,4.3,24.45C72.34,295.39,74.09,299.1,69.07,299.98z"/>
		<path class="st2" d="M117.97,291.5c-14.53,2.56-25.58,4.5-29.84,5.25c-4.26,0.75-8.82,2.1-9.96-2.08
			c-2.69-13.73-3.6-18.8-5.26-27.34c-0.49-2.72-2.1-7.81,3.79-8.84c6.59-1.16,31.29-5.51,35.07-6.17c4.65-0.82,4.89,2.7,5.71,6.58
			c0.82,3.87,3.77,21.08,4.3,24.45S124.36,290.38,117.97,291.5z"/>
		<path class="st2" d="M126.46,249.36c28.98-5.02,167.49-29.75,184.21-31.89c8.9-1.14,8.12,1.97,9.52,9.42
			c1.4,7.45,1.79,10.52,2.52,14.86c1.12,9.7,5.56,13.89-8.14,16.13c-63.97,10.66-153.86,26.87-172.64,29.89
			c-9.97,1.6-12.91,4.69-15.09-7.87c-2.29-13.25-1.84-12.74-3.54-21.32C122.76,255.87,122.01,250.13,126.46,249.36
			c28.98-5.02,167.6-29.02,184.21-31.89"/>
		<path class="st2" d="M370.05,248.3c-14.53,2.56-25.58,4.5-29.84,5.25c-4.26,0.75-8.82,2.1-9.96-2.08
			c-2.69-13.73-3.6-18.8-5.26-27.34c-0.49-2.72-2.1-7.81,3.79-8.84c6.59-1.16,31.29-5.51,35.07-6.17c4.65-0.82,4.89,2.7,5.71,6.58
			c0.82,3.87,3.77,21.08,4.3,24.45C374.4,243.51,376.45,247.17,370.05,248.3z"/>
		<path class="st2" d="M411.94,241.05c-11.42,2.01-20.1,3.54-23.45,4.13c-3.35,0.59-6.91,1.76-7.96-2.44
			c-2.63-13.74-3.54-18.81-5.17-27.36c-0.49-2.72-1.95-7.84,2.68-8.65c5.18-0.91,24.59-4.33,27.56-4.85
			c3.65-0.64,3.97,2.87,4.76,6.74c0.79,3.88,3.76,21.08,4.3,24.45S416.97,240.17,411.94,241.05z"/>
		<path class="st2" d="M452.34,234.09c-11.42,2.01-22.01,3.88-25.36,4.47s-5.62,0.11-6.31-2c-1.45-6.99-1.34-8.54-2.23-12.89
			c-0.26-1.39-0.32-4.19,4.31-5.01c5.18-0.91,22.39-3.87,25.36-4.39c3.65-0.64,4.92,0.95,5.38,2.92c0.46,1.97,1.94,10.75,2.2,12.48
			c0.21,1.43,0.04,3.29-2.5,4.26C452.68,234.13,453.2,233.94,452.34,234.09z"/>
		<path class="st2" d="M531.17,220.44c-11.42,2.01-20.4,3.6-23.75,4.19s-5.36-0.64-6.05-2.75c-1.45-6.99-1.29-7.98-2.18-12.33
			c-0.26-1.39-0.83-3.89,3.8-4.7c5.18-0.91,22.32-4.21,25.29-4.73c3.65-0.64,6.08,1.68,6.54,3.65c0.46,1.97,1.8,10.12,2.06,11.85
			C537.14,217.34,536.2,219.56,531.17,220.44z"/>
		<path class="st2" d="M493.47,206.14l-35.04,6.07c-0.7-3.74-1.3-6.96-2.07-10.97c-0.48-2.68-1.94-7.72,2.68-8.54
			c5.19-0.9,24.6-4.31,27.57-4.85c3.66-0.63,3.95,2.83,4.75,6.64C491.74,196.34,492.6,201.21,493.47,206.14z"/>
		<path class="st2" d="M458.35,212.93l35.04-6.06c0.7,3.72,1.29,6.93,2.06,10.92c0.48,2.67,1.93,7.69-2.69,8.5
			c-5.19,0.9-24.6,4.31-27.57,4.84c-3.66,0.63-3.95-2.81-4.74-6.61C460.08,222.69,459.22,217.85,458.35,212.93z"/>
		<g>
			<g>
				<path class="st6" d="M511.31,167.82c-0.12-0.18-0.33-0.32-0.56-0.28c-0.22,0.04-0.42,0.24-0.38,0.47
					c0.06,0.33,0.49,0.37,0.95,0.48c0.45,0.1,0.91,0.28,1.02,0.88c0.12,0.67-0.36,1.25-1.03,1.37c-0.61,0.11-1.15-0.15-1.44-0.68
					l0.51-0.32c0.21,0.31,0.43,0.51,0.84,0.44c0.33-0.06,0.55-0.32,0.49-0.65c-0.14-0.79-1.72-0.24-1.92-1.36
					c-0.1-0.6,0.32-1.09,0.91-1.19c0.42-0.07,0.85,0.15,1.08,0.49L511.31,167.82z"/>
				<path class="st6" d="M512.93,163.92l0.54,3.1l0.02,0.01c0.2-0.38,0.5-0.63,0.94-0.71c1-0.17,1.36,0.5,1.5,1.33l0.37,2.11
					l-0.62,0.11l-0.35-2c-0.1-0.57-0.23-1.08-0.95-0.96c-0.85,0.15-0.77,0.93-0.66,1.56l0.29,1.69l-0.62,0.11l-1.08-6.24
					L512.93,163.92z"/>
				<path class="st6" d="M517.48,164.52c0.04,0.24-0.12,0.47-0.36,0.51c-0.24,0.04-0.47-0.11-0.52-0.36
					c-0.04-0.23,0.13-0.47,0.37-0.51C517.21,164.13,517.44,164.29,517.48,164.52z M518.2,169.44l-0.62,0.11l-0.62-3.55l0.62-0.11
					L518.2,169.44z"/>
				<path class="st6" d="M520.16,169.1l-0.62,0.11l-0.52-2.99l-0.34,0.06l-0.1-0.56l0.34-0.06l-0.25-1.41
					c-0.05-0.29-0.11-0.67,0-0.95c0.15-0.35,0.49-0.54,0.86-0.61c0.15-0.03,0.3-0.02,0.45,0l0.11,0.61
					c-0.15-0.02-0.28-0.04-0.43-0.01c-0.5,0.09-0.44,0.43-0.33,1.06l0.21,1.2l0.92-0.16l0.1,0.56l-0.92,0.16L520.16,169.1z"/>
				<path class="st6" d="M522.25,168.74l-0.62,0.11l-0.52-2.99l-0.38,0.07l-0.1-0.56l0.38-0.07l-0.22-1.28l0.62-0.11l0.22,1.28
					l0.65-0.11l0.1,0.56l-0.65,0.11L522.25,168.74z"/>
			</g>
		</g>
		<polygon class="st7" points="475.91,199.73 472.62,200.33 473.5,196.23 		"/>
		<polygon class="st7" points="479.28,219.22 475.99,219.76 478.19,223.33 		"/>
		<polygon class="st7" points="515.85,211.16 516.39,214.46 519.96,212.25 		"/>
		<polygon class="st7" points="438.63,224.53 439.23,227.82 435.12,226.94 		"/>
		<g>
			<g>
				<path class="st6" d="M389.47,236.07c-0.18-1.04,0.47-2.02,1.48-2.2c1.01-0.17,1.95,0.53,2.14,1.57
					c0.18,1.04-0.48,2.01-1.49,2.18C390.6,237.8,389.66,237.11,389.47,236.07z M390.06,235.96c0.13,0.73,0.73,1.23,1.45,1.1
					c0.73-0.13,1.12-0.8,0.99-1.53c-0.12-0.72-0.73-1.23-1.45-1.1C390.33,234.56,389.93,235.24,390.06,235.96z"/>
				<path class="st6" d="M394.24,233.93l0.01,0c0.22-0.44,0.6-0.73,1.08-0.81c1.01-0.17,1.8,0.61,1.97,1.6
					c0.18,1.01-0.3,1.98-1.33,2.15c-0.47,0.08-0.94-0.06-1.28-0.39l-0.01,0l0.43,2.5l-0.59,0.1l-0.96-5.55l0.59-0.1L394.24,233.93z
					 M394.42,235.17c0.12,0.7,0.63,1.29,1.36,1.16c0.75-0.13,1.04-0.83,0.92-1.55c-0.12-0.71-0.65-1.21-1.38-1.09
					C394.64,233.81,394.3,234.5,394.42,235.17z"/>
				<path class="st6" d="M399.05,236.23l-0.59,0.1l-0.52-2.99l-0.36,0.06l-0.1-0.56l0.36-0.06l-0.22-1.28l0.59-0.1l0.22,1.28
					l0.62-0.11l0.1,0.56l-0.62,0.11L399.05,236.23z"/>
				<path class="st6" d="M400.17,231c0.04,0.24-0.12,0.46-0.34,0.5c-0.23,0.04-0.45-0.12-0.49-0.36c-0.04-0.23,0.12-0.46,0.34-0.5
					C399.9,230.6,400.12,230.77,400.17,231z M400.89,235.91l-0.59,0.1l-0.62-3.55l0.59-0.1L400.89,235.91z"/>
				<path class="st6" d="M401.5,233.99c-0.18-1.04,0.47-2.02,1.48-2.2c1.01-0.17,1.95,0.53,2.14,1.57c0.18,1.04-0.48,2.01-1.49,2.18
					C402.63,235.71,401.68,235.03,401.5,233.99z M402.08,233.88c0.13,0.73,0.73,1.23,1.45,1.1c0.73-0.12,1.12-0.8,0.99-1.53
					c-0.12-0.72-0.72-1.23-1.45-1.1C402.35,232.48,401.96,233.16,402.08,233.88z"/>
				<path class="st6" d="M406.27,231.76l0.01,0c0.18-0.38,0.47-0.63,0.89-0.7c0.95-0.16,1.29,0.51,1.44,1.34l0.37,2.11l-0.58,0.1
					l-0.35-2c-0.1-0.57-0.23-1.08-0.91-0.96c-0.81,0.14-0.72,0.92-0.61,1.55l0.29,1.69l-0.59,0.1l-0.62-3.55l0.59-0.1L406.27,231.76
					z"/>
			</g>
		</g>
		<g>
			<g>
				<path class="st6" d="M402.77,213.29l-0.45,0.08l-0.07-0.39l-0.01,0c-0.17,0.36-0.45,0.57-0.82,0.63
					c-0.77,0.13-1.38-0.49-1.51-1.28c-0.14-0.81,0.21-1.59,1-1.73c0.36-0.06,0.71,0.06,0.98,0.33l0.01,0l-0.07-0.41l0.45-0.08
					L402.77,213.29z M400.36,212.2c0.1,0.56,0.49,1.03,1.05,0.94c0.57-0.1,0.79-0.66,0.69-1.23c-0.1-0.57-0.51-0.98-1.06-0.88
					C400.51,211.12,400.26,211.67,400.36,212.2z"/>
				<path class="st6" d="M404.03,213.07l-0.45,0.08l-0.87-5.01l0.45-0.08L404.03,213.07z"/>
				<path class="st6" d="M405.33,212.84l-0.45,0.08l-0.42-2.41l-0.27,0.05l-0.08-0.45l0.27-0.05l-0.18-1.03l0.45-0.08l0.18,1.03
					l0.47-0.08l0.08,0.45l-0.47,0.08L405.33,212.84z"/>
			</g>
		</g>
		<g>
			<g>
				<path class="st6" d="M338.29,244.14l-0.02,0c-0.35-0.31-0.75-0.5-1.23-0.41c-0.75,0.13-1.17,0.84-1.05,1.56
					c0.12,0.72,0.73,1.25,1.48,1.12c0.52-0.09,0.84-0.38,1.07-0.83l0.02,0l0.14,0.82c-0.31,0.3-0.65,0.49-1.09,0.57
					c-1.1,0.19-2.07-0.48-2.26-1.58c-0.19-1.08,0.54-2.06,1.61-2.24c0.39-0.07,0.82-0.01,1.18,0.17L338.29,244.14z"/>
				<path class="st6" d="M339.08,244.76c-0.18-1.06,0.51-2.06,1.57-2.25c1.07-0.18,2.05,0.52,2.24,1.59
					c0.18,1.06-0.52,2.05-1.58,2.23C340.25,246.52,339.26,245.82,339.08,244.76z M339.69,244.65c0.13,0.74,0.76,1.25,1.52,1.12
					c0.76-0.13,1.19-0.82,1.06-1.56c-0.13-0.73-0.76-1.25-1.52-1.12C339.98,243.22,339.56,243.92,339.69,244.65z"/>
				<path class="st6" d="M344.11,242.42l0.02,0c0.14-0.33,0.42-0.58,0.79-0.64c0.42-0.07,0.85,0.08,1.11,0.43
					c0.15-0.44,0.54-0.71,0.98-0.79c0.93-0.16,1.29,0.55,1.42,1.32l0.38,2.2l-0.62,0.11l-0.36-2.1c-0.08-0.47-0.21-1.04-0.85-0.93
					c-0.71,0.12-0.67,0.82-0.57,1.37l0.33,1.92l-0.62,0.11l-0.36-2.06c-0.08-0.45-0.24-1.08-0.84-0.98
					c-0.72,0.13-0.68,0.87-0.58,1.42l0.32,1.87l-0.62,0.11l-0.63-3.62l0.62-0.11L344.11,242.42z"/>
				<path class="st6" d="M350.04,241.4l0.02,0c0.14-0.33,0.42-0.58,0.79-0.64c0.42-0.07,0.85,0.08,1.11,0.43
					c0.15-0.44,0.54-0.71,0.98-0.79c0.93-0.16,1.29,0.55,1.42,1.32l0.38,2.2l-0.62,0.11l-0.36-2.1c-0.08-0.47-0.21-1.04-0.85-0.93
					c-0.71,0.12-0.67,0.82-0.57,1.37l0.33,1.92l-0.62,0.11l-0.36-2.06c-0.08-0.45-0.24-1.08-0.84-0.98
					c-0.72,0.13-0.68,0.87-0.58,1.42l0.32,1.87l-0.62,0.11l-0.63-3.62l0.62-0.11L350.04,241.4z"/>
				<path class="st6" d="M359.22,243.13l-0.62,0.11l-0.09-0.5l-0.02,0c-0.25,0.46-0.64,0.73-1.15,0.82c-1.06,0.18-1.89-0.6-2.06-1.6
					c-0.18-1.03,0.32-2.03,1.41-2.22c0.49-0.09,0.98,0.07,1.35,0.4l0.02,0l-0.09-0.52l0.62-0.11L359.22,243.13z M355.91,241.8
					c0.12,0.71,0.65,1.31,1.43,1.17c0.79-0.14,1.1-0.85,0.97-1.58c-0.13-0.72-0.68-1.23-1.45-1.1
					C356.15,240.42,355.8,241.12,355.91,241.8z"/>
				<path class="st6" d="M360.43,239.64l0.02,0c0.2-0.39,0.49-0.64,0.94-0.72c1-0.17,1.36,0.51,1.51,1.36l0.37,2.15l-0.62,0.11
					l-0.35-2.04c-0.1-0.58-0.24-1.1-0.96-0.98c-0.85,0.15-0.77,0.94-0.66,1.59l0.3,1.72l-0.62,0.11l-0.63-3.62l0.62-0.11
					L360.43,239.64z"/>
				<path class="st6" d="M367.04,241.26l-0.02,0c-0.23,0.45-0.65,0.73-1.15,0.82c-1.06,0.18-1.89-0.6-2.06-1.6
					c-0.18-1.03,0.32-2.03,1.41-2.22c0.49-0.08,0.99,0.07,1.35,0.4l0.02,0l-0.56-3.25l0.62-0.11l1.1,6.35l-0.62,0.11L367.04,241.26z
					 M364.44,240.32c0.12,0.71,0.65,1.31,1.43,1.17c0.79-0.14,1.1-0.85,0.97-1.58c-0.13-0.72-0.68-1.23-1.45-1.1
					C364.68,238.94,364.33,239.64,364.44,240.32z"/>
			</g>
		</g>
		<path class="st8" d="M337.48,225.01c2-0.35,2.24,1.02,1.91,1.49c-0.33,0.47-1.92,1.13-2.2-0.15s-0.58-3.67-0.83-4.8
			c-0.25-1.13,2.1-2.01,2.32-0.4c0.23,1.61-0.66,1.17-2.94,1.57c-2.34,0.41-4.99,0.75-3.92-1.2c1.56-1.14,2.27,0.55,2.51,1.92
			c0.24,1.37,0.45,1.92,0.55,2.85c0.1,0.92-0.62,1.93-2.18,1.38c-0.87-1.32,0.09-1.9,0.43-1.96c1.77-0.3,4.35-0.69,5.08-0.88"/>
		<path class="st8" d="M338.02,181.59c0,0-3.79,1.99-4.75,3.02c0.84,0.56,4.87,1.17,5.56,1.63"/>
		<path class="st8" d="M373.3,175.49c0,0,4.24,0.6,5.49,1.25c-0.61,0.81-4.19,2.74-4.69,3.4"/>
		<circle class="st6" cx="379.47" cy="192.41" r="0.95"/>
		<g>
			<g>
				<path class="st9" d="M416.42,170.79c-0.03-0.19-0.05-0.34-0.05-0.47c0-0.13,0.02-0.24,0.05-0.35c0.03-0.11,0.09-0.21,0.15-0.32
					c0.07-0.11,0.15-0.24,0.26-0.4c0.08-0.12,0.16-0.25,0.24-0.37c0.08-0.12,0.15-0.25,0.21-0.37c0.06-0.13,0.1-0.26,0.13-0.4
					c0.03-0.14,0.03-0.28,0-0.45c-0.06-0.32-0.19-0.57-0.41-0.74c-0.22-0.17-0.48-0.23-0.81-0.18c-0.33,0.06-0.58,0.2-0.74,0.44
					c-0.17,0.24-0.25,0.52-0.24,0.86l-0.89,0.05c0-0.28,0.04-0.54,0.12-0.78c0.08-0.24,0.2-0.44,0.36-0.62
					c0.16-0.18,0.34-0.32,0.56-0.44c0.22-0.12,0.46-0.2,0.72-0.24c0.26-0.05,0.52-0.05,0.76-0.01c0.24,0.04,0.46,0.12,0.66,0.24
					s0.36,0.29,0.5,0.49c0.14,0.21,0.23,0.46,0.28,0.74c0.04,0.22,0.04,0.43,0.01,0.61c-0.03,0.19-0.08,0.37-0.16,0.54
					c-0.07,0.17-0.16,0.33-0.28,0.49c-0.11,0.16-0.23,0.32-0.34,0.49c-0.09,0.12-0.15,0.22-0.2,0.3c-0.05,0.08-0.08,0.17-0.1,0.26
					c-0.02,0.09-0.02,0.18-0.02,0.28c0.01,0.1,0.02,0.22,0.05,0.36l0.08,0.46l-0.81,0.14L416.42,170.79z M417.08,172.2
					c0.16-0.03,0.31,0.01,0.44,0.1c0.13,0.1,0.21,0.23,0.24,0.4c0.03,0.17-0.01,0.32-0.1,0.46c-0.1,0.14-0.22,0.22-0.37,0.25
					c-0.15,0.03-0.29-0.01-0.43-0.11c-0.14-0.1-0.22-0.23-0.25-0.4c-0.03-0.17,0-0.32,0.09-0.46
					C416.8,172.31,416.92,172.23,417.08,172.2z"/>
			</g>
		</g>
		<path class="st10" d="M417.94,186.93l2.16-7.59L417.94,186.93z"/>
		<path class="st11" d="M498.68,92.23l-4.45-6.8L498.68,92.23z"/>
		<path class="st12" d="M494.94,79.08l-1.23-7.83L494.94,79.08z"/>
		<g>
			<g>
				<path class="st6" d="M498.31,129.21l0.02,0c0.17-0.32,0.32-0.55,0.72-0.62c0.21-0.04,0.39,0,0.58,0.07l-0.2,0.6
					c-0.14-0.06-0.24-0.12-0.4-0.09c-0.68,0.12-0.56,0.98-0.48,1.44l0.31,1.78l-0.62,0.11l-0.62-3.55l0.62-0.11L498.31,129.21z"/>
				<path class="st6" d="M500.88,130.34c0.12,0.66,0.69,1.1,1.39,0.98c0.52-0.09,0.81-0.46,0.98-0.93l0.58,0.2
					c-0.24,0.7-0.76,1.16-1.5,1.29c-1.08,0.19-1.91-0.5-2.09-1.52c-0.18-1.05,0.29-2.03,1.43-2.23c1.16-0.2,1.95,0.64,2.07,1.71
					L500.88,130.34z M502.99,129.44c-0.17-0.5-0.69-0.84-1.23-0.75c-0.53,0.09-0.95,0.59-0.94,1.12L502.99,129.44z"/>
				<path class="st6" d="M505.51,131.23l-0.62,0.11l-0.52-2.99l-0.38,0.07l-0.1-0.56l0.38-0.07l-0.22-1.28l0.62-0.11l0.22,1.28
					l0.65-0.11l0.1,0.56l-0.65,0.11L505.51,131.23z"/>
				<path class="st6" d="M507.01,129.35c0.1,0.6,0.26,1.1,1.01,0.97c0.75-0.13,0.73-0.66,0.63-1.25l-0.34-1.98l0.62-0.11l0.35,2.05
					c0.16,0.94-0.08,1.67-1.16,1.85c-1.07,0.19-1.55-0.41-1.71-1.35l-0.35-2.05l0.62-0.11L507.01,129.35z"/>
				<path class="st6" d="M510.7,127.07l0.02,0c0.17-0.32,0.32-0.55,0.72-0.62c0.21-0.04,0.39,0,0.58,0.07l-0.2,0.6
					c-0.14-0.06-0.24-0.12-0.4-0.09c-0.68,0.12-0.56,0.98-0.48,1.44l0.31,1.78l-0.62,0.11l-0.62-3.55l0.62-0.11L510.7,127.07z"/>
				<path class="st6" d="M513.38,126.65l0.02,0c0.2-0.38,0.49-0.63,0.94-0.71c1-0.17,1.36,0.5,1.5,1.33l0.37,2.11l-0.62,0.11
					l-0.35-2c-0.1-0.57-0.23-1.08-0.95-0.96c-0.85,0.15-0.77,0.93-0.66,1.56l0.29,1.69l-0.62,0.11l-0.62-3.55l0.62-0.11
					L513.38,126.65z"/>
			</g>
		</g>
		<g>
			<g>
				<path class="st6" d="M500.55,113.54c0.1,0.53,0.56,0.89,1.13,0.8c0.42-0.07,0.66-0.37,0.79-0.75l0.47,0.17
					c-0.19,0.56-0.61,0.94-1.21,1.04c-0.87,0.15-1.55-0.41-1.69-1.24c-0.15-0.85,0.24-1.65,1.15-1.8c0.94-0.16,1.57,0.52,1.67,1.38
					L500.55,113.54z M502.26,112.82c-0.14-0.41-0.56-0.68-0.99-0.61c-0.43,0.07-0.77,0.48-0.76,0.91L502.26,112.82z"/>
				<path class="st6" d="M503.83,111.74l0.01,0c0.16-0.31,0.4-0.51,0.76-0.57c0.81-0.14,1.1,0.4,1.22,1.08l0.3,1.71l-0.5,0.09
					l-0.28-1.63c-0.08-0.47-0.19-0.88-0.77-0.78c-0.69,0.12-0.62,0.75-0.53,1.27l0.24,1.37l-0.5,0.09l-0.5-2.88l0.5-0.09
					L503.83,111.74z"/>
				<path class="st6" d="M507.59,113.7l-0.5,0.09l-0.42-2.43l-0.31,0.05l-0.08-0.45l0.31-0.05l-0.18-1.04l0.5-0.09l0.18,1.04
					l0.52-0.09l0.08,0.45l-0.52,0.09L507.59,113.7z"/>
				<path class="st6" d="M508.59,112.15c0.1,0.53,0.56,0.9,1.13,0.8c0.42-0.07,0.66-0.37,0.79-0.75l0.47,0.17
					c-0.19,0.56-0.61,0.94-1.21,1.04c-0.87,0.15-1.55-0.41-1.69-1.24c-0.15-0.85,0.24-1.65,1.15-1.8c0.94-0.16,1.57,0.52,1.67,1.38
					L508.59,112.15z M510.29,111.43c-0.14-0.4-0.56-0.68-0.99-0.61c-0.43,0.08-0.77,0.48-0.76,0.91L510.29,111.43z"/>
				<path class="st6" d="M511.84,110.32l0.01,0c0.14-0.26,0.26-0.45,0.58-0.51c0.17-0.03,0.32,0,0.47,0.06l-0.16,0.49
					c-0.11-0.05-0.19-0.1-0.32-0.08c-0.55,0.1-0.45,0.79-0.39,1.17l0.25,1.44l-0.5,0.09l-0.5-2.88l0.5-0.09L511.84,110.32z"/>
			</g>
		</g>
		<path class="st11" d="M451.46,78.56c0,0,1.45-0.87,1.56,0.67c0.12,1.81,0.18,2.32,1.48,2.83c-0.85,0.83-0.5,2.18-0.46,3.04
			c0.04,0.86,0.19,1.3-1.16,1.61"/>
		<path class="st11" d="M413.82,85.08c0,0-1.66-0.33-1.24,1.16c0.49,1.74,0.62,2.25-0.44,3.16c1.08,0.5,1.21,1.89,1.46,2.71
			c0.25,0.82,0.25,1.29,1.64,1.13"/>
		<polyline class="st13" points="454.14,91.82 455.16,91.65 456.65,99.57 455.52,99.76 		"/>
		<polyline class="st13" points="415.55,98.75 414.53,98.93 415.8,106.89 416.93,106.69 		"/>
		<g>
			<g>
				<path class="st6" d="M486.31,53.05l-0.02,0c-0.23,0.44-0.65,0.72-1.15,0.81c-1.06,0.18-1.89-0.58-2.06-1.57
					c-0.18-1.01,0.33-2,1.42-2.18c0.49-0.08,0.99,0.06,1.35,0.39l0.02,0l-0.55-3.19l0.62-0.11l1.08,6.24l-0.62,0.11L486.31,53.05z
					 M483.71,52.14c0.12,0.7,0.65,1.28,1.42,1.15c0.79-0.14,1.1-0.84,0.98-1.56c-0.12-0.71-0.68-1.21-1.44-1.07
					C483.95,50.78,483.6,51.47,483.71,52.14z"/>
				<path class="st6" d="M488.17,51.54c0.12,0.66,0.69,1.1,1.39,0.98c0.52-0.09,0.81-0.46,0.98-0.93l0.58,0.2
					c-0.24,0.7-0.76,1.16-1.5,1.29c-1.08,0.19-1.91-0.5-2.09-1.52c-0.18-1.05,0.29-2.03,1.43-2.23c1.16-0.2,1.95,0.64,2.07,1.71
					L488.17,51.54z M490.28,50.64c-0.17-0.5-0.69-0.84-1.23-0.75c-0.53,0.09-0.95,0.59-0.94,1.12L490.28,50.64z"/>
				<path class="st6" d="M492.75,52.44l-0.62,0.11l-1.08-6.24l0.62-0.11L492.75,52.44z"/>
				<path class="st6" d="M493.93,50.54c0.12,0.66,0.69,1.1,1.39,0.98c0.52-0.09,0.81-0.46,0.98-0.93l0.58,0.2
					c-0.24,0.7-0.76,1.16-1.5,1.29c-1.08,0.19-1.91-0.5-2.09-1.52c-0.18-1.05,0.29-2.03,1.43-2.22c1.16-0.2,1.95,0.64,2.07,1.71
					L493.93,50.54z M496.04,49.65c-0.17-0.5-0.69-0.84-1.23-0.75c-0.53,0.09-0.95,0.59-0.94,1.12L496.04,49.65z"/>
				<path class="st6" d="M498.55,51.44l-0.62,0.11l-0.52-2.99l-0.38,0.07l-0.1-0.56l0.38-0.07l-0.22-1.28l0.62-0.11l0.22,1.28
					l0.65-0.11l0.1,0.56l-0.65,0.11L498.55,51.44z"/>
				<path class="st6" d="M499.78,49.53c0.12,0.66,0.69,1.1,1.39,0.98c0.52-0.09,0.81-0.46,0.98-0.93l0.58,0.2
					c-0.24,0.7-0.76,1.16-1.5,1.29c-1.08,0.19-1.91-0.5-2.09-1.52c-0.18-1.05,0.29-2.03,1.43-2.23c1.16-0.2,1.95,0.64,2.07,1.71
					L499.78,49.53z M501.89,48.63c-0.17-0.5-0.69-0.84-1.23-0.75c-0.53,0.09-0.95,0.59-0.94,1.12L501.89,48.63z"/>
			</g>
		</g>
		<g>
			<g>
				<path class="st6" d="M390.23,132.42c0.06,0.33-0.16,0.65-0.5,0.71c-0.33,0.06-0.65-0.17-0.71-0.5c-0.05-0.32,0.17-0.63,0.5-0.68
					C389.86,131.88,390.18,132.1,390.23,132.42z M390.93,136.47c0.06,0.33-0.16,0.65-0.5,0.71c-0.33,0.06-0.65-0.17-0.71-0.5
					c-0.05-0.32,0.17-0.63,0.5-0.68C390.56,135.94,390.88,136.15,390.93,136.47z"/>
			</g>
		</g>
		<g>
			<g>
				<path class="st6" d="M427.83,126.25l1.03-2.95l0.75,0.1l-0.76,2.97L427.83,126.25z M430.04,125.87l1.03-2.95l0.75,0.1
					l-0.76,2.97L430.04,125.87z"/>
			</g>
		</g>
		<g>
			<g>
				<path class="st6" d="M432.86,136.56l-1.02,2.96l-0.75-0.11l0.75-2.96L432.86,136.56z"/>
			</g>
		</g>
		<g>
			<g>
				<path class="st6" d="M393,149.11l-1.02,2.96l-0.75-0.11l0.75-2.96L393,149.11z M392.48,145.46c0.06,0.33-0.23,0.66-0.63,0.73
					c-0.41,0.07-0.78-0.15-0.84-0.47c-0.06-0.32,0.23-0.64,0.64-0.71C392.05,144.93,392.43,145.14,392.48,145.46z"/>
			</g>
		</g>
		<g>
			<g>
				<path class="st6" d="M339.38,199.09l-1.02,2.96l-0.75-0.11l0.75-2.96L339.38,199.09z"/>
			</g>
		</g>
		<g>
			<g>
				<path class="st6" d="M426.6,43.98l0.36,2.07l2.11-0.37l0.14,0.8l-2.11,0.37l0.36,2.07l-0.81,0.14l-0.36-2.07l-2.11,0.37
					l-0.14-0.8l2.11-0.37l-0.36-2.07L426.6,43.98z"/>
			</g>
		</g>
		<g>
			<g>
				<path class="st6" d="M431.07,57.25l0.15,0.86l-5.03,0.87l-0.15-0.86L431.07,57.25z M431.37,58.97l0.15,0.86l-5.03,0.87
					l-0.15-0.86L431.37,58.97z"/>
			</g>
		</g>
		<g>
			<g>
				<path class="st14" d="M389.87,65.71l0.02,0.12l-2.88,0.5l-0.02-0.12L389.87,65.71z"/>
			</g>
		</g>
		<g>
			<g>
				<path class="st15" d="M388.9,53.41l-4.95,0.86l-0.03-0.17l4.95-0.86L388.9,53.41z"/>
			</g>
		</g>
		<polygon class="st7" points="484.69,9.06 479.21,10.1 481.36,6.77 		"/>
		<g>
			<g>
				<path class="st16" d="M484.58,10.71l0.02,0.12l-5.05,0.87l-0.02-0.12L484.58,10.71z"/>
			</g>
		</g>
		<path class="st7" d="M438.12,14.77c-0.66,0.95-1.06,1.46-2.15,1.84c0.25,1.43,0.13,0.74,0.25,1.43c1.51,0.22,1.51,0.22,2.65,1.04
			C438.46,16.77,438.12,14.77,438.12,14.77z"/>
		<path class="st17" d="M439.69,14.86c0.95,0.54,1.81,2.09,1.01,3.91"/>
		<path class="st17" d="M440.41,13.59c1.5,0.82,2.84,3.17,1.55,5.96"/>
		<path class="st17" d="M441.35,12.68c1.79,1.03,3.4,3.98,1.9,7.42"/>
		<g>
			<g>
				<path class="st6" d="M449.39,19.1l0.15,0.88l0.88-0.15l0.05,0.3l-0.88,0.15l0.25,1.46l-0.29,0.05l-0.51-2.95l1.2-0.21l0.05,0.31
					L449.39,19.1z"/>
				<path class="st6" d="M451.05,18.81l0.1-0.33l0.58-0.1l0.51,2.95l-0.29,0.05l-0.46-2.64L451.05,18.81z"/>
				<path class="st6" d="M454.9,20.56l0.05,0.31l-1.7,0.3l0.95-1.84c0.08-0.16,0.13-0.33,0.09-0.52c-0.06-0.33-0.34-0.53-0.62-0.48
					c-0.32,0.05-0.48,0.35-0.42,0.7l-0.29,0.05c-0.08-0.52,0.19-0.97,0.65-1.05c0.44-0.08,0.89,0.22,0.98,0.73
					c0.04,0.24,0.01,0.46-0.09,0.66l-0.7,1.36L454.9,20.56z"/>
			</g>
		</g>
		<g>
			<g>
				<path class="st6" d="M408.13,25.89l0.17,0.99l0.94-0.16l0.06,0.34l-0.94,0.16l0.29,1.65l-0.31,0.05l-0.58-3.33l1.28-0.22
					l0.06,0.35L408.13,25.89z"/>
				<path class="st6" d="M409.91,25.58l0.11-0.37l0.62-0.11l0.58,3.33l-0.31,0.05l-0.52-2.99L409.91,25.58z"/>
				<path class="st6" d="M412.21,25.18l0.11-0.37l0.62-0.11l0.58,3.33l-0.31,0.05l-0.52-2.99L412.21,25.18z"/>
			</g>
		</g>
		<path class="st7" d="M397.72,21.88c-0.66,0.95-1.06,1.46-2.15,1.84c0.25,1.43,0.13,0.74,0.25,1.43c1.51,0.22,1.51,0.22,2.65,1.04
			C398.07,23.87,397.72,21.88,397.72,21.88z"/>
		<path class="st17" d="M399.23,21.68c0.95,0.54,1.81,2.09,1.01,3.91"/>
		<g>
			<g>
				<path class="st6" d="M365.17,33.33l0.17,0.99l0.94-0.16l0.06,0.34l-0.94,0.16l0.29,1.65l-0.31,0.05l-0.58-3.33l1.28-0.22
					l0.06,0.35L365.17,33.33z"/>
				<path class="st6" d="M366.95,33.02l0.11-0.37l0.62-0.11l0.58,3.33l-0.31,0.05l-0.52-2.99L366.95,33.02z"/>
				<path class="st6" d="M371.05,33.68c0.14,0.82-0.07,1.78-0.71,1.89c-0.64,0.11-1.17-0.72-1.31-1.54c-0.12-0.69,0-1.78,0.71-1.9
					C370.45,32,370.93,32.99,371.05,33.68z M369.35,33.99c0.09,0.47,0.41,1.33,0.93,1.24c0.52-0.09,0.54-1.01,0.46-1.48
					c-0.07-0.47-0.41-1.37-0.94-1.28C369.27,32.56,369.26,33.52,369.35,33.99z"/>
			</g>
		</g>
		<g>
			<path class="st6" d="M325.63,40.17l0.17,0.99l0.94-0.16l0.06,0.34l-0.94,0.16l0.29,1.65l-0.31,0.06l-0.58-3.33l1.28-0.22
				l0.06,0.35L325.63,40.17z"/>
			<path class="st6" d="M328,42.7l0.47-1.17l-0.01-0.01c-0.07,0.04-0.15,0.07-0.24,0.09c-0.52,0.09-1-0.34-1.1-0.94
				c-0.11-0.63,0.25-1.21,0.78-1.3c0.53-0.09,1.06,0.33,1.17,0.97c0.05,0.3-0.02,0.58-0.12,0.85l-0.68,1.67L328,42.7z M327.43,40.6
				c0.07,0.43,0.43,0.72,0.79,0.66c0.36-0.06,0.6-0.45,0.52-0.88c-0.07-0.43-0.43-0.73-0.79-0.66
				C327.59,39.78,327.35,40.18,327.43,40.6z"/>
		</g>
		<g>
			<path class="st6" d="M283.59,47.45l0.17,0.99l0.94-0.16l0.06,0.34l-0.94,0.16l0.29,1.65l-0.31,0.05l-0.58-3.33l1.28-0.22
				l0.06,0.35L283.59,47.45z"/>
			<path class="st6" d="M286.81,47.44c0.05,0.29-0.03,0.61-0.22,0.79c0.29,0.1,0.5,0.39,0.55,0.73c0.1,0.57-0.2,1.05-0.69,1.14
				c-0.49,0.08-0.93-0.27-1.03-0.84c-0.06-0.34,0.04-0.68,0.28-0.87c-0.24-0.11-0.42-0.38-0.47-0.67c-0.09-0.53,0.19-0.99,0.63-1.06
				C286.3,46.57,286.72,46.9,286.81,47.44z M285.74,49.2c0.06,0.35,0.35,0.6,0.66,0.55c0.31-0.05,0.5-0.38,0.44-0.73
				c-0.06-0.35-0.35-0.6-0.66-0.55C285.87,48.52,285.68,48.85,285.74,49.2z M285.53,47.65c0.06,0.32,0.32,0.55,0.59,0.5
				c0.27-0.05,0.45-0.35,0.39-0.67c-0.06-0.32-0.32-0.54-0.59-0.49C285.65,47.04,285.48,47.33,285.53,47.65z"/>
		</g>
		<g>
			<path class="st6" d="M242.34,54.59l0.17,0.99l0.94-0.16l0.06,0.34l-0.94,0.16l0.29,1.65l-0.31,0.05l-0.58-3.33l1.28-0.22
				l0.06,0.35L242.34,54.59z"/>
			<path class="st6" d="M243.72,54.36l-0.06-0.35l2.08-0.36l-1.31,3.72l-0.28-0.13l1.1-3.15L243.72,54.36z"/>
		</g>
		<g>
			<path class="st6" d="M199.91,61.94l0.17,0.99l0.94-0.16l0.06,0.34l-0.94,0.16l0.29,1.65l-0.31,0.05l-0.58-3.33l1.28-0.22
				l0.06,0.35L199.91,61.94z"/>
			<path class="st6" d="M202.66,61.26l-0.47,1.15l0.01,0.01c0.07-0.04,0.15-0.08,0.24-0.09c0.51-0.09,1,0.34,1.1,0.94
				c0.11,0.64-0.24,1.22-0.78,1.31c-0.54,0.09-1.06-0.34-1.17-0.97c-0.05-0.3,0.02-0.59,0.12-0.85l0.68-1.67L202.66,61.26z
				 M203.23,63.34c-0.08-0.43-0.43-0.72-0.79-0.66c-0.37,0.06-0.6,0.45-0.53,0.88c0.08,0.43,0.43,0.74,0.79,0.67
				C203.07,64.17,203.3,63.77,203.23,63.34z"/>
		</g>
		<g>
			<path class="st6" d="M158.01,69.2l0.17,0.99l0.94-0.16l0.06,0.34l-0.94,0.16l0.29,1.65l-0.31,0.05l-0.58-3.33l1.28-0.22
				l0.06,0.35L158.01,69.2z"/>
			<path class="st6" d="M160.26,68.81l-0.06,0.74l0.17-0.05c0.56-0.1,1.03,0.35,1.14,1c0.12,0.69-0.25,1.27-0.83,1.37
				c-0.37,0.06-0.72-0.1-0.97-0.45l0.21-0.26c0.17,0.25,0.44,0.4,0.7,0.36c0.42-0.07,0.65-0.49,0.56-0.98
				c-0.08-0.47-0.45-0.76-0.84-0.69c-0.19,0.03-0.36,0.15-0.5,0.3l0.13-1.67l1.12-0.19l0.06,0.35L160.26,68.81z"/>
		</g>
		<g>
			<path class="st6" d="M116.31,76.42l0.17,0.99l0.94-0.16l0.06,0.34l-0.94,0.16l0.29,1.65l-0.31,0.05l-0.58-3.33l1.28-0.22
				l0.06,0.35L116.31,76.42z"/>
			<path class="st6" d="M119.99,77.94l0.06,0.35l-0.35,0.06l0.09,0.54l-0.31,0.05l-0.09-0.54l-1.44,0.25l1.24-3.28l0.01,0l0.46,2.63
				L119.99,77.94z M119.07,76.55L119.07,76.55l-0.63,1.66l0.89-0.15L119.07,76.55z"/>
		</g>
		<g>
			<path class="st6" d="M74.61,83.63l0.17,0.99l0.94-0.16l0.06,0.34l-0.94,0.16l0.29,1.65l-0.31,0.06l-0.58-3.33l1.28-0.22
				l0.06,0.35L74.61,83.63z"/>
			<path class="st6" d="M76.99,84.32c0.3-0.07,0.54-0.22,0.46-0.64c-0.06-0.35-0.3-0.55-0.6-0.5c-0.28,0.05-0.4,0.3-0.37,0.62
				l-0.31,0.05c-0.05-0.54,0.17-0.93,0.63-1.02c0.45-0.08,0.86,0.22,0.96,0.77c0.05,0.3-0.03,0.62-0.24,0.79
				c0.3,0.1,0.49,0.41,0.55,0.75c0.1,0.58-0.22,1.06-0.7,1.14c-0.46,0.08-0.9-0.22-1-0.78l0.31-0.05c0.07,0.34,0.36,0.53,0.64,0.48
				c0.31-0.05,0.5-0.4,0.44-0.76c-0.07-0.42-0.36-0.59-0.71-0.52L76.99,84.32z"/>
		</g>
		<g>
			<path class="st6" d="M32.56,90.92l0.17,0.99l0.94-0.16l0.06,0.34l-0.94,0.16l0.29,1.65l-0.31,0.05l-0.58-3.33l1.28-0.22
				l0.06,0.35L32.56,90.92z"/>
			<path class="st6" d="M36.19,93.01l0.06,0.34l-1.83,0.32l1-2.07c0.08-0.18,0.13-0.37,0.09-0.59c-0.06-0.37-0.37-0.6-0.67-0.55
				c-0.34,0.06-0.51,0.39-0.45,0.78l-0.31,0.05c-0.09-0.58,0.2-1.09,0.69-1.18c0.47-0.08,0.96,0.25,1.06,0.83
				c0.05,0.27,0.02,0.52-0.09,0.74L35,93.22L36.19,93.01z"/>
		</g>
		<g>
			<path class="st6" d="M-8.45,98.02l0.17,0.99l0.94-0.16l0.06,0.34l-0.94,0.16l0.29,1.65l-0.31,0.05l-0.58-3.33l1.28-0.22
				l0.06,0.35L-8.45,98.02z"/>
			<path class="st6" d="M-6.68,97.71l0.11-0.37l0.62-0.11l0.58,3.33l-0.31,0.06l-0.52-2.99L-6.68,97.71z"/>
		</g>
		<g>
			<g>
				<path class="st6" d="M-66.54,104.88c0.12,0.66,0.69,1.1,1.39,0.98c0.52-0.09,0.81-0.46,0.98-0.93l0.58,0.2
					c-0.24,0.7-0.76,1.16-1.5,1.29c-1.08,0.19-1.91-0.5-2.09-1.52c-0.18-1.05,0.29-2.03,1.43-2.22c1.16-0.2,1.94,0.64,2.07,1.71
					L-66.54,104.88z M-64.43,103.98c-0.17-0.5-0.69-0.84-1.23-0.75c-0.53,0.09-0.95,0.59-0.94,1.12L-64.43,103.98z"/>
				<path class="st6" d="M-61.57,102.9c-0.12-0.18-0.33-0.32-0.56-0.28c-0.22,0.04-0.42,0.24-0.38,0.47
					c0.06,0.33,0.49,0.37,0.95,0.47c0.45,0.1,0.91,0.28,1.02,0.88c0.12,0.67-0.35,1.25-1.03,1.37c-0.61,0.11-1.15-0.15-1.44-0.68
					l0.51-0.32c0.21,0.31,0.43,0.51,0.84,0.44c0.33-0.06,0.55-0.32,0.49-0.65c-0.14-0.79-1.73-0.24-1.92-1.36
					c-0.1-0.6,0.32-1.09,0.91-1.19c0.42-0.07,0.85,0.15,1.08,0.49L-61.57,102.9z"/>
				<path class="st6" d="M-57.23,102.39l-0.02,0c-0.35-0.31-0.74-0.49-1.23-0.4c-0.75,0.13-1.18,0.83-1.05,1.54
					c0.12,0.7,0.72,1.23,1.48,1.1c0.52-0.09,0.84-0.38,1.07-0.82l0.02,0l0.14,0.81c-0.31,0.3-0.65,0.49-1.09,0.56
					c-1.1,0.19-2.07-0.47-2.25-1.54c-0.18-1.06,0.55-2.03,1.61-2.21c0.39-0.07,0.82-0.01,1.18,0.16L-57.23,102.39z"/>
			</g>
		</g>
		<g>
			<g>
				<path class="st6" d="M-60.31,132.63c0.18-0.96,0.56-1.8,1.3-1.93c0.39-0.07,0.89,0.1,1.33,0.29c0.43,0.18,0.91,0.47,1.21,0.41
					c0.32-0.06,0.55-0.59,0.62-1.23l0.83,0.18c-0.15,0.95-0.55,1.8-1.3,1.93c-0.39,0.07-0.87-0.13-1.25-0.29
					c-0.56-0.24-0.99-0.45-1.3-0.4c-0.32,0.06-0.52,0.58-0.61,1.22L-60.31,132.63z"/>
			</g>
		</g>
		<g>
			<g>
				<path class="st6" d="M-56.95,139.17l2.54,1.87l-0.84,0.54l-3.12-1.63L-56.95,139.17z"/>
			</g>
		</g>
		<g>
			<g>
				<path class="st6" d="M-59.28,188.3l-0.62,0.11l-0.52-2.99l-0.38,0.07l-0.1-0.56l0.38-0.07l-0.22-1.28l0.62-0.11l0.22,1.28
					l0.65-0.11l0.1,0.56l-0.65,0.11L-59.28,188.3z"/>
				<path class="st6" d="M-54.77,187.52l-0.62,0.11l-0.09-0.49l-0.02,0c-0.25,0.45-0.64,0.72-1.15,0.81
					c-1.06,0.18-1.89-0.58-2.06-1.57c-0.18-1.01,0.33-2,1.42-2.19c0.49-0.09,0.98,0.06,1.35,0.39l0.02,0l-0.09-0.51l0.62-0.11
					L-54.77,187.52z M-58.07,186.22c0.12,0.7,0.65,1.28,1.42,1.15c0.79-0.14,1.1-0.84,0.98-1.56c-0.12-0.71-0.68-1.21-1.44-1.07
					C-57.83,184.86-58.18,185.56-58.07,186.22z"/>
				<path class="st6" d="M-54.74,181.09l0.62-0.11l0.55,3.19l0.02,0c0.23-0.43,0.64-0.74,1.14-0.82c1.08-0.19,1.89,0.57,2.07,1.57
					c0.17,0.99-0.35,1.99-1.41,2.18c-0.5,0.09-0.99-0.04-1.35-0.37l-0.02,0l0.09,0.49l-0.62,0.11L-54.74,181.09z M-53.39,185.41
					c0.12,0.7,0.65,1.28,1.42,1.15c0.79-0.14,1.1-0.84,0.98-1.56c-0.12-0.71-0.68-1.21-1.44-1.07
					C-53.14,184.05-53.5,184.75-53.39,185.41z"/>
			</g>
		</g>
		<g>
			<g>
				<path class="st6" d="M-52.27,225.23l-0.01,0c-0.34-0.31-0.73-0.49-1.21-0.41c-0.73,0.13-1.15,0.82-1.02,1.53
					c0.12,0.7,0.71,1.23,1.45,1.1c0.51-0.09,0.82-0.38,1.05-0.81l0.01,0l0.14,0.81c-0.31,0.29-0.64,0.48-1.06,0.56
					c-1.07,0.19-2.03-0.47-2.21-1.55c-0.18-1.06,0.53-2.02,1.57-2.2c0.39-0.07,0.8-0.01,1.16,0.17L-52.27,225.23z"/>
				<path class="st6" d="M-47.64,227l-0.6,0.1l-0.09-0.49l-0.01,0c-0.24,0.45-0.62,0.71-1.12,0.8c-1.04,0.18-1.85-0.59-2.02-1.57
					c-0.18-1.01,0.32-1.99,1.38-2.18c0.48-0.08,0.96,0.07,1.32,0.4l0.01,0l-0.09-0.51l0.6-0.1L-47.64,227z M-50.87,225.69
					c0.12,0.7,0.64,1.28,1.4,1.15c0.78-0.13,1.08-0.83,0.95-1.55c-0.12-0.71-0.67-1.21-1.42-1.08
					C-50.64,224.34-50.99,225.03-50.87,225.69z"/>
				<path class="st6" d="M-46.47,223.66l0.01,0c0.23-0.44,0.63-0.73,1.12-0.82c1.04-0.18,1.85,0.61,2.02,1.59
					c0.18,1.01-0.32,1.98-1.38,2.16c-0.48,0.08-0.97-0.05-1.32-0.39l-0.01,0l0.43,2.5l-0.6,0.11l-0.96-5.55l0.6-0.11L-46.47,223.66z
					 M-46.29,224.9c0.12,0.7,0.64,1.28,1.4,1.15c0.78-0.13,1.08-0.83,0.95-1.55c-0.12-0.71-0.67-1.21-1.42-1.08
					C-46.06,223.54-46.4,224.23-46.29,224.9z"/>
				<path class="st6" d="M-41.2,223.08c-0.12-0.18-0.33-0.32-0.55-0.28c-0.21,0.04-0.41,0.24-0.37,0.47
					c0.06,0.33,0.48,0.38,0.93,0.48c0.45,0.1,0.9,0.28,1,0.88c0.12,0.67-0.34,1.25-1,1.36c-0.6,0.1-1.12-0.16-1.41-0.68l0.5-0.32
					c0.21,0.31,0.42,0.51,0.82,0.44c0.32-0.06,0.54-0.32,0.48-0.64c-0.14-0.79-1.69-0.25-1.88-1.36c-0.1-0.6,0.31-1.09,0.88-1.19
					c0.41-0.07,0.83,0.15,1.06,0.49L-41.2,223.08z"/>
				<path class="st6" d="M-36.23,225.03l-0.6,0.1l-1.08-6.24l0.6-0.1L-36.23,225.03z"/>
				<path class="st6" d="M-35.73,223.12c-0.18-1.04,0.5-2.03,1.54-2.21c1.04-0.18,2.01,0.52,2.19,1.56
					c0.18,1.04-0.51,2.01-1.54,2.19C-34.58,224.84-35.55,224.16-35.73,223.12z M-35.13,223.01c0.13,0.73,0.74,1.23,1.49,1.1
					c0.75-0.13,1.16-0.81,1.03-1.53c-0.12-0.72-0.74-1.23-1.49-1.1C-34.84,221.6-35.25,222.29-35.13,223.01z"/>
				<path class="st6" d="M-28.66,221.15l-0.01,0c-0.34-0.31-0.73-0.49-1.21-0.41c-0.73,0.13-1.15,0.82-1.02,1.53
					c0.12,0.7,0.71,1.23,1.45,1.1c0.51-0.09,0.82-0.38,1.05-0.81l0.01,0l0.14,0.81c-0.31,0.3-0.64,0.48-1.06,0.56
					c-1.07,0.19-2.03-0.47-2.21-1.55c-0.18-1.06,0.53-2.02,1.57-2.2c0.38-0.07,0.8,0,1.16,0.17L-28.66,221.15z"/>
				<path class="st6" d="M-27.09,221.14l1.06-1.54l0.81-0.14l-1.26,1.77l2.16,1.73l-0.8,0.14l-1.71-1.37l-0.13,0.19l0.25,1.46
					l-0.6,0.1l-1.08-6.24l0.6-0.1L-27.09,221.14z"/>
			</g>
		</g>
		<g>
			<g>
				<path class="st6" d="M-45.34,264.2c-0.12-0.18-0.33-0.32-0.55-0.28c-0.21,0.04-0.41,0.24-0.37,0.47
					c0.06,0.33,0.48,0.38,0.93,0.48c0.45,0.1,0.9,0.28,1,0.88c0.12,0.67-0.34,1.25-1,1.36c-0.6,0.1-1.12-0.16-1.41-0.68l0.5-0.32
					c0.21,0.31,0.42,0.51,0.82,0.44c0.32-0.06,0.54-0.32,0.48-0.64c-0.14-0.79-1.69-0.25-1.88-1.37c-0.1-0.6,0.31-1.09,0.88-1.19
					c0.41-0.07,0.83,0.15,1.06,0.49L-45.34,264.2z"/>
				<path class="st6" d="M-43.77,260.31l0.54,3.1l0.02,0.01c0.19-0.38,0.48-0.63,0.92-0.7c0.98-0.17,1.33,0.5,1.47,1.33l0.37,2.11
					l-0.6,0.1l-0.35-2c-0.1-0.57-0.23-1.08-0.94-0.96c-0.83,0.14-0.75,0.92-0.64,1.56l0.29,1.69l-0.6,0.1l-1.08-6.24L-43.77,260.31z
					"/>
				<path class="st6" d="M-39.31,260.92c0.04,0.24-0.12,0.46-0.36,0.51c-0.23,0.04-0.46-0.12-0.5-0.36
					c-0.04-0.23,0.12-0.46,0.36-0.51C-39.58,260.53-39.35,260.69-39.31,260.92z M-38.59,265.84l-0.6,0.1l-0.62-3.55l0.6-0.1
					L-38.59,265.84z"/>
				<path class="st6" d="M-36.67,265.51l-0.6,0.1l-0.52-2.99l-0.33,0.06l-0.1-0.56l0.33-0.06l-0.24-1.41
					c-0.05-0.29-0.12-0.66,0-0.95c0.14-0.35,0.47-0.54,0.84-0.6c0.14-0.03,0.29-0.02,0.44,0l0.11,0.61
					c-0.14-0.02-0.27-0.04-0.42-0.01c-0.49,0.09-0.43,0.43-0.32,1.06l0.21,1.2l0.9-0.16l0.1,0.56l-0.9,0.16L-36.67,265.51z"/>
				<path class="st6" d="M-34.62,265.15l-0.6,0.1l-0.52-2.99l-0.37,0.06l-0.1-0.56l0.37-0.06l-0.22-1.28l0.6-0.1l0.22,1.28
					l0.63-0.11l0.1,0.56l-0.63,0.11L-34.62,265.15z"/>
			</g>
		</g>
		<g>
			<g>
				<path class="st6" d="M-38.57,312l-0.6,0.1l-0.52-2.99l-0.33,0.06l-0.1-0.56l0.33-0.06l-0.25-1.41c-0.05-0.29-0.11-0.66,0-0.95
					c0.14-0.35,0.47-0.54,0.84-0.6c0.14-0.02,0.29-0.02,0.44,0l0.11,0.61c-0.14-0.02-0.27-0.04-0.42-0.01
					c-0.49,0.08-0.43,0.43-0.32,1.06l0.21,1.2l0.9-0.16l0.1,0.56l-0.9,0.16L-38.57,312z"/>
				<path class="st6" d="M-37.1,308.53l0.02,0c0.19-0.38,0.48-0.63,0.92-0.7c0.98-0.17,1.33,0.5,1.47,1.33l0.37,2.11l-0.6,0.1
					l-0.35-2c-0.1-0.57-0.23-1.08-0.94-0.96c-0.83,0.14-0.75,0.92-0.64,1.56l0.29,1.69l-0.6,0.1l-0.62-3.55l0.6-0.1L-37.1,308.53z"
					/>
			</g>
		</g>
		<g>
			<g>
				<path class="st6" d="M3.19,302.2l-0.01,0c-0.34-0.31-0.73-0.49-1.21-0.41c-0.73,0.13-1.15,0.82-1.03,1.53
					c0.12,0.7,0.71,1.23,1.45,1.1c0.51-0.09,0.82-0.38,1.05-0.81l0.01,0l0.14,0.81c-0.31,0.29-0.64,0.48-1.06,0.56
					c-1.07,0.19-2.03-0.47-2.21-1.55c-0.18-1.06,0.53-2.02,1.57-2.2c0.39-0.07,0.8-0.01,1.16,0.17L3.19,302.2z"/>
				<path class="st6" d="M3.96,302.82c-0.18-1.04,0.5-2.03,1.54-2.21c1.04-0.18,2.01,0.52,2.19,1.56c0.18,1.04-0.51,2.01-1.54,2.19
					S4.14,303.86,3.96,302.82z M4.56,302.7c0.13,0.73,0.74,1.23,1.49,1.1c0.75-0.13,1.16-0.81,1.03-1.53
					c-0.12-0.72-0.74-1.23-1.49-1.1C4.85,301.3,4.44,301.98,4.56,302.7z"/>
				<path class="st6" d="M8.89,300.57l0.02,0c0.19-0.38,0.48-0.63,0.92-0.7c0.98-0.17,1.33,0.5,1.47,1.33l0.37,2.11l-0.6,0.1
					l-0.35-2c-0.1-0.57-0.23-1.08-0.94-0.96c-0.83,0.14-0.75,0.92-0.64,1.56l0.29,1.69l-0.6,0.1l-0.62-3.55l0.6-0.1L8.89,300.57z"/>
				<path class="st6" d="M13.45,303l-0.6,0.1l-0.52-2.99l-0.37,0.06l-0.1-0.56l0.37-0.06l-0.22-1.28l0.6-0.1l0.22,1.28l0.63-0.11
					l0.1,0.56L12.93,300L13.45,303z"/>
				<path class="st6" d="M14.65,299.52l0.02,0c0.16-0.32,0.31-0.55,0.7-0.62c0.2-0.04,0.38,0,0.57,0.07l-0.19,0.6
					c-0.14-0.06-0.23-0.12-0.39-0.1c-0.66,0.12-0.55,0.98-0.47,1.44l0.31,1.78l-0.6,0.1l-0.62-3.55l0.6-0.1L14.65,299.52z"/>
				<path class="st6" d="M16.53,300.64c-0.18-1.04,0.5-2.03,1.54-2.21c1.04-0.18,2.01,0.52,2.19,1.56c0.18,1.04-0.51,2.01-1.54,2.19
					C17.68,302.36,16.71,301.68,16.53,300.64z M17.13,300.53c0.13,0.73,0.74,1.23,1.49,1.1c0.75-0.13,1.16-0.81,1.03-1.53
					c-0.12-0.72-0.74-1.23-1.49-1.1C17.42,299.12,17.01,299.81,17.13,300.53z"/>
				<path class="st6" d="M21.99,301.52l-0.6,0.1l-1.08-6.24l0.6-0.1L21.99,301.52z"/>
			</g>
		</g>
		<g>
			<g>
				<path class="st6" d="M40.81,296.44c-0.18-1.04,0.5-2.03,1.54-2.21c1.04-0.18,2.01,0.52,2.19,1.56c0.18,1.04-0.51,2.01-1.54,2.19
					C41.96,298.16,40.99,297.48,40.81,296.44z M41.41,296.32c0.13,0.73,0.74,1.23,1.49,1.1c0.75-0.13,1.16-0.81,1.03-1.53
					c-0.12-0.72-0.74-1.23-1.49-1.1C41.69,294.92,41.28,295.6,41.41,296.32z"/>
				<path class="st6" d="M45.72,294.27l0.02,0c0.23-0.44,0.63-0.73,1.12-0.82c1.04-0.18,1.85,0.61,2.02,1.59
					c0.17,1.01-0.32,1.98-1.38,2.16c-0.48,0.08-0.97-0.05-1.32-0.39l-0.02,0l0.43,2.5l-0.6,0.1l-0.96-5.55l0.6-0.1L45.72,294.27z
					 M45.9,295.51c0.12,0.7,0.64,1.28,1.4,1.15c0.78-0.13,1.08-0.83,0.95-1.55c-0.12-0.71-0.67-1.21-1.42-1.08
					C46.13,294.15,45.79,294.84,45.9,295.51z"/>
				<path class="st6" d="M50.66,296.55l-0.6,0.1l-0.52-2.99l-0.37,0.06l-0.1-0.56l0.37-0.06l-0.22-1.28l0.6-0.1l0.22,1.28l0.63-0.11
					l0.1,0.56l-0.63,0.11L50.66,296.55z"/>
				<path class="st6" d="M51.84,291.31c0.04,0.24-0.12,0.46-0.36,0.51c-0.23,0.04-0.46-0.11-0.5-0.36
					c-0.04-0.23,0.12-0.46,0.36-0.51C51.57,290.91,51.8,291.07,51.84,291.31z M52.56,296.22l-0.6,0.1l-0.62-3.55l0.6-0.1
					L52.56,296.22z"/>
				<path class="st6" d="M53.2,294.29c-0.18-1.04,0.5-2.03,1.54-2.21c1.04-0.18,2.01,0.52,2.19,1.56c0.18,1.04-0.51,2.01-1.54,2.19
					C54.35,296.01,53.38,295.33,53.2,294.29z M53.8,294.18c0.13,0.73,0.74,1.23,1.49,1.1c0.75-0.13,1.16-0.81,1.03-1.53
					c-0.12-0.72-0.74-1.23-1.49-1.1C54.09,292.77,53.68,293.46,53.8,294.18z"/>
				<path class="st6" d="M58.13,292.04l0.02,0c0.19-0.38,0.48-0.63,0.92-0.7c0.98-0.17,1.33,0.5,1.47,1.33l0.37,2.11l-0.6,0.1
					l-0.35-2c-0.1-0.57-0.23-1.08-0.94-0.96c-0.83,0.14-0.75,0.92-0.64,1.56l0.29,1.69l-0.6,0.1l-0.62-3.55l0.6-0.1L58.13,292.04z"
					/>
			</g>
		</g>
		<g>
			<g>
				<path class="st6" d="M85.91,287.88l-0.02,0c-0.34-0.31-0.72-0.49-1.19-0.41c-0.72,0.13-1.13,0.82-1.01,1.53
					c0.12,0.7,0.71,1.23,1.44,1.11c0.5-0.09,0.81-0.37,1.03-0.81l0.01,0l0.14,0.81c-0.3,0.29-0.63,0.48-1.05,0.56
					c-1.06,0.18-2-0.48-2.19-1.55c-0.18-1.06,0.52-2.02,1.55-2.2c0.38-0.07,0.79,0,1.14,0.17L85.91,287.88z"/>
				<path class="st6" d="M86.67,288.5c-0.18-1.04,0.49-2.02,1.52-2.2c1.03-0.18,1.99,0.52,2.17,1.56c0.18,1.04-0.5,2.01-1.52,2.19
					C87.81,290.22,86.85,289.54,86.67,288.5z M87.26,288.38c0.13,0.73,0.74,1.23,1.47,1.1c0.74-0.13,1.14-0.81,1.02-1.53
					c-0.12-0.72-0.73-1.23-1.47-1.1C87.54,286.98,87.14,287.67,87.26,288.38z"/>
				<path class="st6" d="M91.53,286.21l0.01,0c0.13-0.33,0.4-0.57,0.76-0.63c0.41-0.07,0.82,0.08,1.07,0.42
					c0.14-0.43,0.52-0.7,0.95-0.77c0.89-0.16,1.25,0.55,1.38,1.29l0.37,2.16l-0.6,0.1l-0.36-2.06c-0.08-0.46-0.21-1.02-0.82-0.92
					c-0.69,0.12-0.64,0.8-0.55,1.34l0.33,1.88l-0.6,0.1l-0.35-2.02c-0.08-0.44-0.24-1.06-0.81-0.97c-0.7,0.12-0.65,0.85-0.56,1.39
					l0.32,1.84l-0.6,0.1l-0.62-3.55l0.6-0.1L91.53,286.21z"/>
				<path class="st6" d="M97.26,285.22l0.01,0c0.14-0.33,0.4-0.57,0.76-0.63c0.41-0.07,0.82,0.08,1.07,0.42
					c0.14-0.43,0.52-0.7,0.95-0.77c0.89-0.16,1.25,0.55,1.38,1.3l0.37,2.16l-0.6,0.1l-0.36-2.06c-0.08-0.46-0.21-1.02-0.82-0.92
					c-0.69,0.12-0.64,0.8-0.55,1.34l0.33,1.88l-0.6,0.1l-0.35-2.02c-0.08-0.44-0.24-1.06-0.81-0.97c-0.7,0.12-0.65,0.85-0.56,1.39
					l0.32,1.84l-0.6,0.1l-0.62-3.55l0.6-0.1L97.26,285.22z"/>
				<path class="st6" d="M106.14,286.95l-0.6,0.1l-0.09-0.49l-0.02,0c-0.24,0.45-0.61,0.71-1.11,0.8c-1.03,0.18-1.83-0.59-2-1.58
					c-0.18-1.01,0.31-1.99,1.36-2.17c0.48-0.08,0.95,0.07,1.3,0.4l0.02,0l-0.09-0.51l0.6-0.1L106.14,286.95z M102.94,285.63
					c0.12,0.7,0.64,1.28,1.38,1.16c0.77-0.13,1.06-0.83,0.94-1.55c-0.12-0.71-0.66-1.21-1.4-1.08
					C103.17,284.28,102.83,284.97,102.94,285.63z"/>
				<path class="st6" d="M107.31,283.53l0.01,0c0.19-0.38,0.48-0.63,0.91-0.7c0.97-0.17,1.32,0.5,1.46,1.34l0.37,2.11l-0.6,0.1
					l-0.35-2c-0.1-0.57-0.23-1.08-0.93-0.96c-0.82,0.14-0.74,0.92-0.63,1.56l0.29,1.69l-0.6,0.1l-0.62-3.55l0.6-0.1L107.31,283.53z"
					/>
				<path class="st6" d="M113.71,285.13l-0.02,0c-0.22,0.44-0.63,0.72-1.11,0.8c-1.03,0.18-1.83-0.59-2-1.58
					c-0.18-1.01,0.31-1.99,1.36-2.17c0.47-0.08,0.96,0.07,1.31,0.4l0.02,0l-0.55-3.19l0.6-0.1l1.08,6.24l-0.6,0.1L113.71,285.13z
					 M111.19,284.2c0.12,0.7,0.64,1.28,1.38,1.16c0.77-0.13,1.06-0.83,0.94-1.55c-0.12-0.71-0.66-1.21-1.4-1.08
					C111.41,282.85,111.07,283.54,111.19,284.2z"/>
			</g>
		</g>
		<circle class="st18" cx="-55.81" cy="207.01" r="1.49"/>
		<g>
			<g>
				<path class="st6" d="M25.4,206.37l-0.75,2.81l-1.22,0.21l2.94-10.39l6.15,8.82l-1.23,0.21l-1.63-2.4L25.4,206.37z M26.76,201.38
					l-1.07,3.96l3.37-0.58L26.76,201.38z"/>
			</g>
		</g>
		<g>
			<g>
				<path class="st6" d="M13.05,169.27c-0.49,0.67-1.29,1.15-2.02,1.27c-2.06,0.36-4.12-1.44-4.58-4.07
					c-0.45-2.62,0.88-5.04,2.94-5.4c2.08-0.36,4.13,1.5,4.58,4.12c0.22,1.28,0.04,2.37-0.48,3.41l1.32,1.21l-1.02,0.18L13.05,169.27
					z M12.82,167.97c0.41-0.81,0.52-1.69,0.35-2.68c-0.36-2.09-1.96-3.57-3.61-3.28c-1.65,0.29-2.66,2.22-2.3,4.3
					c0.36,2.07,1.98,3.56,3.61,3.28c0.54-0.09,1.12-0.46,1.49-0.96l-2.12-1.92l1.05-0.18L12.82,167.97z"/>
			</g>
		</g>
		<g>
			<g>
				<path class="st6" d="M48.96,161.91l1.13-7.75l3.67,6.92l0.76-7.2l0.9-0.15l-1.18,10.13l-3.68-6.96l-1.13,7.79l-4.51-9.14
					l0.9-0.16L48.96,161.91z"/>
			</g>
		</g>
		<g>
			<g>
				<path class="st6" d="M88.54,147.53l3.85-0.67l0.16,0.95l-3.02,0.52l0.47,2.72l2.93-0.51l0.16,0.95L90.17,152l0.62,3.6l3.02-0.52
					l0.16,0.95l-3.85,0.67L88.54,147.53z"/>
			</g>
		</g>
		<g>
			<g>
				<path class="st6" d="M134.93,229.86l-0.83,0.14l-1.59-9.16l1.07-0.19c1.41-0.24,2.8-0.01,3.16,2.06
					c0.24,1.41-0.3,2.53-1.42,2.85l3.07,3.7l-1.01,0.18l-2.94-3.63l-0.21,0.04L134.93,229.86z M134.08,224.94l0.26-0.05
					c0.94-0.16,1.84-0.54,1.6-1.96c-0.26-1.51-1.18-1.5-2.18-1.33l-0.25,0.04L134.08,224.94z"/>
			</g>
		</g>
		<g>
			<g>
				<path class="st6" d="M297.67,201.84l-0.83,0.14l-1.38-7.95l-1.79,0.31l-0.16-0.92l4.43-0.77l0.16,0.92l-1.81,0.31L297.67,201.84
					z"/>
			</g>
		</g>
		<path class="st4" d="M205.47,189.8c-11.42,2.01-20.1,3.54-23.45,4.13s-6.92,1.69-7.87-1.91c-2.29-11.8-3.07-16.16-4.49-23.5
			c-0.42-2.34-1.75-6.72,2.87-7.53c5.18-0.91,24.59-4.33,27.56-4.85c3.65-0.64,3.89,2.38,4.58,5.71s3.23,18.11,3.7,21.01
			C208.84,185.75,210.49,188.91,205.47,189.8z"/>
		<g>
			<g>
				<path class="st6" d="M63.32,191.98l0.96-0.17l2.58,3.62l1.21-4.28l0.96-0.17l-1.56,5.48l0.66,3.81l-0.83,0.14l-0.66-3.81
					L63.32,191.98z"/>
			</g>
		</g>
		<g>
			<g>
				<path class="st6" d="M255.21,205.46c0.11,0.66,0.22,1.41,0.67,1.92c0.42,0.48,1.1,0.68,1.64,0.59c0.53-0.09,1.06-0.49,1.32-1.04
					c0.3-0.63,0.13-1.4,0.01-2.1l-0.91-5.28l0.83-0.14l0.96,5.55c0.17,0.96,0.24,1.74-0.22,2.57c-0.4,0.75-1.08,1.23-1.82,1.36
					c-0.7,0.12-1.47-0.07-2.08-0.57c-0.78-0.63-1-1.43-1.17-2.44l-0.96-5.55l0.83-0.14L255.21,205.46z"/>
			</g>
		</g>
		<g>
			<g>
				<path d="M252.49,117.78l1.93,11.14l-1.41,0.24l-1.93-11.14L252.49,117.78z"/>
			</g>
		</g>
		<g>
			<g>
				<path d="M166.92,138.3c-0.27-1.57-0.02-3,0.74-4.29c0.76-1.29,1.82-2.06,3.16-2.29c1.33-0.23,2.57,0.14,3.71,1.11
					c1.15,0.97,1.87,2.25,2.14,3.84c0.28,1.6,0.03,3.05-0.73,4.33c-0.77,1.29-1.83,2.05-3.19,2.29c-1.2,0.21-2.37-0.1-3.5-0.93
					C168,141.44,167.23,140.08,166.92,138.3z M168.34,138.08c0.21,1.23,0.73,2.18,1.57,2.86c0.83,0.67,1.69,0.93,2.59,0.78
					c0.98-0.17,1.73-0.72,2.27-1.64c0.53-0.93,0.69-1.99,0.49-3.16c-0.21-1.19-0.71-2.13-1.51-2.82c-0.8-0.69-1.69-0.96-2.66-0.79
					c-0.97,0.17-1.72,0.71-2.25,1.64C168.3,135.86,168.14,136.9,168.34,138.08z"/>
			</g>
		</g>
		<g>
			<g>
				<path d="M224.08,169.74c-0.27-1.57-0.02-3,0.74-4.29c0.76-1.29,1.82-2.06,3.16-2.29c1.33-0.23,2.57,0.14,3.71,1.11
					c1.15,0.97,1.87,2.25,2.14,3.84c0.28,1.6,0.03,3.05-0.73,4.33c-0.77,1.29-1.83,2.05-3.19,2.29c-1.2,0.21-2.37-0.1-3.5-0.93
					C225.17,172.88,224.39,171.52,224.08,169.74z M225.5,169.51c0.21,1.23,0.73,2.18,1.57,2.86c0.83,0.67,1.69,0.93,2.59,0.78
					c0.98-0.17,1.73-0.72,2.27-1.64c0.53-0.93,0.69-1.99,0.49-3.16c-0.21-1.19-0.71-2.13-1.51-2.82c-0.8-0.69-1.69-0.96-2.66-0.79
					c-0.97,0.17-1.72,0.71-2.25,1.64C225.46,167.3,225.3,168.34,225.5,169.51z"/>
			</g>
		</g>
		<g>
			<g>
				<path d="M264.98,162.7c-0.27-1.57-0.02-3,0.74-4.29c0.76-1.29,1.82-2.06,3.16-2.29c1.33-0.23,2.57,0.14,3.71,1.11
					c1.15,0.97,1.87,2.25,2.14,3.84c0.28,1.6,0.03,3.05-0.73,4.33c-0.77,1.29-1.83,2.05-3.19,2.29c-1.2,0.21-2.37-0.1-3.5-0.93
					C266.07,165.83,265.29,164.48,264.98,162.7z M266.4,162.47c0.21,1.23,0.73,2.18,1.57,2.86c0.83,0.67,1.69,0.93,2.59,0.78
					c0.98-0.17,1.73-0.72,2.27-1.64c0.53-0.93,0.69-1.99,0.49-3.16c-0.21-1.19-0.71-2.13-1.51-2.82c-0.8-0.69-1.69-0.96-2.66-0.79
					c-0.97,0.17-1.72,0.71-2.25,1.64C266.36,160.25,266.2,161.3,266.4,162.47z"/>
			</g>
		</g>
		<g>
			<g>
				<path class="st6" d="M373.06,107.7l-1.12,0.19l-1.53-8.87l1.65-0.28c0.86-0.15,1.76-0.28,2.57,0.04
					c0.82,0.33,1.34,1.04,1.48,1.83c0.12,0.72-0.08,1.5-0.63,2.07c-0.59,0.61-1.44,0.86-2.28,1l-0.81,0.14L373.06,107.7z
					 M372.23,102.9l0.74-0.13c1.24-0.21,2.23-0.73,2.01-2c-0.25-1.45-1.58-1.32-2.89-1.1l-0.41,0.07L372.23,102.9z"/>
			</g>
		</g>
		<g>
			<g>
				<path class="st6" d="M350.24,150.84l2.76-0.48l0.16,0.92l-3.88,0.67l-1.54-8.87l1.12-0.19L350.24,150.84z"/>
			</g>
		</g>
		<g>
			<g>
				<path d="M334.75,109.32l4-0.69l0.06,0.37c0.15,0.84,0.19,1.59,0.13,2.27c-0.06,0.63-0.25,1.23-0.56,1.82
					c-0.7,1.32-1.74,2.1-3.13,2.34c-1.35,0.24-2.61-0.13-3.77-1.09c-1.16-0.96-1.88-2.24-2.15-3.82c-0.28-1.62-0.03-3.07,0.76-4.37
					c0.79-1.3,1.88-2.07,3.29-2.32c0.76-0.13,1.49-0.07,2.21,0.17c0.69,0.25,1.4,0.72,2.15,1.41l-0.84,1.33
					c-1-1.08-2.08-1.52-3.22-1.32c-1.02,0.18-1.81,0.73-2.36,1.67c-0.56,0.92-0.73,1.98-0.52,3.18c0.21,1.24,0.78,2.2,1.69,2.87
					c0.85,0.62,1.7,0.86,2.54,0.71c0.72-0.12,1.32-0.51,1.79-1.17c0.47-0.66,0.68-1.39,0.61-2.19l-2.41,0.42L334.75,109.32z"/>
			</g>
		</g>
		<g>
			<g>
				<path class="st6" d="M146.91,178.8l0.46,2.63l2.72-0.47l0.16,0.92l-2.72,0.47l0.76,4.4l-0.91,0.16l-1.53-8.87l3.71-0.64
					l0.16,0.92L146.91,178.8z"/>
			</g>
		</g>
		<g>
			<g>
				<path class="st6" d="M104.25,185.24l1.54-0.27c1.22-0.21,2.25-0.21,3.37,0.52c1.08,0.71,1.71,1.82,1.94,3.14
					c0.22,1.29-0.01,2.51-0.76,3.53c-0.81,1.11-1.76,1.45-3.03,1.68l-1.52,0.26L104.25,185.24z M107.2,192.92
					c1-0.17,1.8-0.47,2.42-1.36c0.55-0.8,0.74-1.79,0.57-2.77c-0.18-1.01-0.7-1.92-1.52-2.47c-0.87-0.59-1.72-0.59-2.68-0.42
					l-0.66,0.11l1.22,7.03L107.2,192.92z"/>
			</g>
		</g>
		<g>
			<g>
				<path d="M190.45,171.55l-1.11,1.03c-0.31-0.4-0.59-0.65-0.82-0.75c-0.25-0.12-0.55-0.14-0.9-0.08c-0.43,0.07-0.76,0.27-1,0.58
					c-0.24,0.31-0.32,0.66-0.25,1.05c0.09,0.54,0.54,0.92,1.34,1.12l1.1,0.28c0.89,0.22,1.58,0.56,2.06,1.02
					c0.48,0.46,0.78,1.07,0.91,1.84c0.18,1.02,0.01,1.93-0.5,2.7c-0.52,0.78-1.24,1.26-2.18,1.42c-0.89,0.15-1.67,0-2.35-0.48
					c-0.67-0.47-1.17-1.22-1.49-2.23l1.5-0.65c0.18,0.64,0.39,1.07,0.61,1.29c0.4,0.43,0.91,0.59,1.52,0.48
					c0.48-0.08,0.85-0.33,1.11-0.73c0.26-0.41,0.34-0.88,0.25-1.42c-0.04-0.22-0.1-0.41-0.19-0.58c-0.09-0.17-0.2-0.32-0.35-0.45
					c-0.14-0.13-0.32-0.25-0.53-0.35c-0.21-0.1-0.45-0.19-0.73-0.26l-1.07-0.28c-1.51-0.4-2.38-1.22-2.59-2.46
					c-0.14-0.84,0.03-1.59,0.52-2.25c0.49-0.67,1.17-1.08,2.05-1.23C188.54,169.95,189.57,170.41,190.45,171.55z"/>
			</g>
		</g>
		<g>
			<g>
				<path class="st6" d="M57.17,242.3l0.16,0.92l-5.85,1.01l3.07-8.72l-3.89,0.67l-0.16-0.92l5.4-0.94l-3.08,8.72L57.17,242.3z"/>
			</g>
		</g>
		<g>
			<g>
				<path class="st6" d="M90.76,228.99l1.21-0.21l2.47,2.75l1.4-3.42l1.21-0.21l-1.88,4.39l3.54,3.75l-1.21,0.21l-2.76-2.99
					L93.14,237l-1.21,0.21l2.07-4.72L90.76,228.99z"/>
			</g>
		</g>
		<g>
			<g>
				<path d="M133.84,138.76l0.34,1.99c-1.02-0.66-1.99-0.91-2.93-0.75c-1.03,0.18-1.83,0.74-2.39,1.69c-0.57,0.94-0.75,2-0.55,3.19
					c0.2,1.17,0.73,2.09,1.58,2.77c0.85,0.68,1.79,0.93,2.82,0.75c0.53-0.09,0.97-0.27,1.31-0.52c0.19-0.13,0.38-0.3,0.58-0.5
					c0.2-0.2,0.4-0.44,0.6-0.71l0.35,2.03c-0.77,0.69-1.64,1.12-2.59,1.29c-1.44,0.25-2.76-0.1-3.96-1.03
					c-1.2-0.95-1.94-2.21-2.22-3.79c-0.25-1.42-0.04-2.76,0.61-4.01c0.8-1.54,2.03-2.46,3.68-2.74
					C131.99,138.24,132.91,138.36,133.84,138.76z"/>
			</g>
		</g>
		<g>
			<g>
				<path class="st6" d="M175.66,220.73l1.02-6.61l0.89-0.15l-1.49,9.19l-4.5-8.15l0.89-0.15L175.66,220.73z"/>
			</g>
		</g>
		<g>
			<g>
				<path class="st6" d="M212.59,207.89l1.38-0.24c1.52-0.26,2.9,0.06,3.19,1.73c0.11,0.66-0.04,1.27-0.55,1.74
					c1.04,0.07,1.78,0.84,1.95,1.82c0.28,1.63-0.95,2.51-2.61,2.8l-1.95,0.34L212.59,207.89z M214.15,211.33l0.36-0.06
					c1.06-0.18,1.94-0.46,1.72-1.73c-0.21-1.24-1.04-1.23-2.18-1.03l-0.37,0.06L214.15,211.33z M214.79,215.07l0.93-0.16
					c1.05-0.18,2.1-0.62,1.89-1.87c-0.22-1.27-1.5-1.24-2.52-1.06l-0.81,0.14L214.79,215.07z"/>
			</g>
		</g>
		<g>
			<g>
				<path d="M290,123l-2.06-11.9l9.09,7.18l-1.34-7.74l1.58-0.27l2.05,11.82l-9.09-7.16l1.35,7.8L290,123z"/>
			</g>
		</g>
		<g>
			<g>
				<path d="M306.56,160.26l-2.06-11.9l9.09,7.18l-1.34-7.74l1.58-0.27l2.05,11.82l-9.09-7.16l1.35,7.8L306.56,160.26z"/>
			</g>
		</g>
		<g>
			<g>
				<path d="M208.25,137.58l0.06-12.35l4.97,8.06l2.1-9.28l3.99,11.65l-1.57,0.27l-2.14-6.56l-1.74,7.76l-4.17-6.74l0.08,6.92
					L208.25,137.58z"/>
			</g>
		</g>
		<g>
			<g>
				<path class="st6" d="M-17.52,133.12l0.27-0.95l1.58-0.27l1.47,8.5l-0.8,0.14l-1.32-7.62L-17.52,133.12z"/>
			</g>
		</g>
		<g>
			<g>
				<path class="st6" d="M27.49,132.27l0.15,0.88l-4.67,0.81l2.56-5.29c0.22-0.46,0.34-0.95,0.24-1.5c-0.16-0.95-0.94-1.53-1.72-1.4
					c-0.87,0.15-1.3,1-1.15,2l-0.8,0.14c-0.23-1.49,0.5-2.79,1.77-3.01c1.2-0.21,2.45,0.65,2.7,2.12c0.12,0.69,0.05,1.32-0.23,1.89
					l-1.9,3.89L27.49,132.27z"/>
			</g>
		</g>
		<g>
			<g>
				<path class="st6" d="M65.23,121.59c0.76-0.17,1.37-0.55,1.19-1.62c-0.16-0.9-0.76-1.4-1.52-1.27c-0.72,0.12-1.02,0.76-0.95,1.57
					l-0.79,0.14c-0.12-1.37,0.42-2.38,1.61-2.59c1.16-0.2,2.21,0.57,2.45,1.97c0.13,0.76-0.08,1.57-0.61,2.02
					c0.76,0.25,1.24,1.04,1.39,1.91c0.26,1.49-0.57,2.7-1.8,2.91c-1.17,0.2-2.28-0.57-2.55-1.99l0.78-0.14
					c0.19,0.86,0.92,1.36,1.64,1.24c0.8-0.14,1.27-1.01,1.11-1.95c-0.19-1.08-0.93-1.51-1.81-1.33L65.23,121.59z"/>
			</g>
		</g>
		<g>
			<g>
				<path class="st6" d="M108.26,116.16l0.15,0.89l-0.89,0.15l0.24,1.39l-0.8,0.14l-0.24-1.39l-3.69,0.64l3.15-8.45l0.02,0
					l1.17,6.78L108.26,116.16z M105.9,112.57l-0.02,0l-1.59,4.27l2.29-0.4L105.9,112.57z"/>
			</g>
		</g>
		<g>
			<g>
				<path class="st6" d="M145,104.73l-0.15,1.91l0.42-0.12c1.42-0.25,2.63,0.92,2.92,2.58c0.31,1.78-0.65,3.27-2.12,3.52
					c-0.95,0.16-1.83-0.27-2.47-1.15l0.55-0.66c0.45,0.64,1.12,1.04,1.8,0.92c1.06-0.18,1.65-1.26,1.44-2.51
					c-0.21-1.22-1.15-1.94-2.16-1.77c-0.5,0.09-0.92,0.39-1.27,0.78l0.33-4.29l2.87-0.5l0.15,0.89L145,104.73z"/>
			</g>
		</g>
		<g>
			<g>
				<path class="st6" d="M187,97.12l-1.2,2.95l0.02,0.02c0.18-0.11,0.39-0.2,0.61-0.23c1.31-0.23,2.56,0.88,2.82,2.43
					c0.28,1.64-0.62,3.14-1.98,3.38c-1.37,0.24-2.71-0.89-2.99-2.51c-0.14-0.79,0.04-1.51,0.3-2.17l1.72-4.29L187,97.12z
					 M188.46,102.46c-0.19-1.12-1.1-1.85-2.03-1.69c-0.94,0.16-1.53,1.16-1.34,2.27c0.19,1.12,1.1,1.9,2.03,1.73
					C188.06,104.61,188.65,103.57,188.46,102.46z"/>
			</g>
		</g>
		<g>
			<g>
				<path class="st6" d="M223.63,91.29l-0.15-0.89l5.32-0.92l-3.33,9.57l-0.71-0.34l2.81-8.11L223.63,91.29z"/>
			</g>
		</g>
		<g>
			<g>
				<path class="st6" d="M269.14,84.86c0.12,0.72-0.09,1.51-0.6,1.97c0.77,0.23,1.3,0.95,1.45,1.8c0.25,1.43-0.57,2.63-1.86,2.85
					c-1.29,0.22-2.46-0.64-2.71-2.06c-0.15-0.84,0.11-1.7,0.76-2.18c-0.64-0.26-1.1-0.93-1.23-1.65c-0.23-1.33,0.52-2.47,1.69-2.67
					S268.9,83.54,269.14,84.86z M266.25,89.28c0.15,0.88,0.91,1.48,1.72,1.34c0.81-0.14,1.33-0.96,1.17-1.84
					c-0.15-0.88-0.91-1.48-1.72-1.34C266.61,87.58,266.1,88.41,266.25,89.28z M265.74,85.43c0.14,0.8,0.84,1.35,1.55,1.22
					c0.71-0.12,1.19-0.87,1.05-1.67c-0.14-0.79-0.83-1.33-1.55-1.2C266.08,83.9,265.6,84.64,265.74,85.43z"/>
			</g>
		</g>
		<g>
			<g>
				<path class="st6" d="M307.42,84.36l1.27-2.92l-0.02-0.02c-0.19,0.1-0.4,0.18-0.63,0.22c-1.37,0.24-2.63-0.81-2.89-2.31
					c-0.27-1.57,0.68-3.02,2.09-3.27c1.41-0.24,2.8,0.81,3.07,2.38c0.13,0.75-0.07,1.45-0.35,2.11l-1.83,4.18L307.42,84.36z
					 M305.98,79.15c0.19,1.07,1.11,1.77,2.08,1.61c0.96-0.17,1.6-1.14,1.42-2.21c-0.18-1.07-1.12-1.8-2.08-1.63
					C306.42,77.09,305.79,78.09,305.98,79.15z"/>
			</g>
		</g>
		<g>
			<g>
				<path class="st6" d="M350.42,73.01c0.35,2.04-0.23,4.44-1.94,4.73c-1.71,0.3-3.06-1.76-3.42-3.81c-0.29-1.7,0.04-4.43,1.94-4.76
					C348.89,68.85,350.12,71.31,350.42,73.01z M345.9,73.84c0.22,1.16,1.05,3.29,2.43,3.05c1.38-0.24,1.44-2.52,1.26-3.69
					c-0.18-1.18-1.04-3.4-2.45-3.16C345.73,70.28,345.68,72.66,345.9,73.84z"/>
			</g>
		</g>
		<g>
			<g>
				<path class="st6" d="M344.99,56.08c0.89,1,1.36,2.48,1.57,3.7c0.21,1.22,0.26,2.77-0.24,4.01l-0.75-0.13
					c0.37-1.23,0.38-2.51,0.17-3.74c-0.21-1.23-0.66-2.43-1.42-3.46L344.99,56.08z"/>
			</g>
		</g>
		<g>
			<g>
				<path class="st6" d="M305.63,63.75c-0.37,1.23-0.38,2.51-0.17,3.74c0.21,1.23,0.66,2.43,1.42,3.46l-0.66,0.38
					c-0.89-1-1.36-2.48-1.57-3.7s-0.26-2.77,0.24-4.01L305.63,63.75z"/>
			</g>
		</g>
		<g>
			<g>
				<path class="st6" d="M265.03,72.23l1.42-0.91l0.44,0.9L265.4,73l1.27,1.28l-0.6,0.72l-1.17-1.4l-0.63,1.71l-0.81-0.47l0.76-1.63
					l-1.66-0.23l0.11-1l1.64,0.38l-0.39-1.84l0.87-0.15L265.03,72.23z"/>
			</g>
		</g>
		<g>
			<g>
				<path class="st6" d="M226.69,83.41c-0.54,0.67-1.21,1.36-2.11,1.51c-1.1,0.19-2.24-0.44-2.44-1.57
					c-0.2-1.18,0.57-1.89,1.37-2.63l0.08-0.07c-0.4-0.38-0.88-0.79-0.98-1.38c-0.15-0.89,0.42-1.62,1.32-1.77
					c0.81-0.14,1.63,0.3,1.77,1.12c0.15,0.84-0.43,1.42-0.97,1.98l1.85,1.64l0.65-1.07l0.66,0.37l-0.74,1.21l1.49,1.33l-1.01,0.17
					L226.69,83.41z M223.85,81.45c-0.48,0.46-1.06,1-0.93,1.72c0.11,0.66,0.81,1.17,1.49,1.05c0.73-0.13,1.26-0.79,1.7-1.32
					l-1.96-1.75L223.85,81.45z M224.23,80.07c0.36-0.38,0.8-0.74,0.7-1.3c-0.07-0.43-0.49-0.66-0.91-0.58
					c-0.44,0.08-0.74,0.47-0.66,0.92c0.06,0.36,0.35,0.58,0.59,0.82l0.21,0.21L224.23,80.07z"/>
			</g>
		</g>
		<g>
			<g>
				<path class="st6" d="M183.35,84.7l0.69-0.12l2.72,3.9l-0.86,0.15l-2.03-2.97l-0.93,3.48l-0.84,0.15L183.35,84.7z"/>
			</g>
		</g>
		<g>
			<g>
				<path class="st6" d="M142.79,93.69c0.16,0.9-0.46,1.74-1.34,1.89c-0.88,0.15-1.74-0.42-1.9-1.33c-0.16-0.91,0.45-1.75,1.34-1.9
					C141.78,92.19,142.63,92.78,142.79,93.69z M140.18,94.14c0.09,0.54,0.63,0.9,1.17,0.81c0.54-0.09,0.92-0.61,0.83-1.15
					c-0.1-0.55-0.63-0.91-1.17-0.82C140.47,93.07,140.08,93.59,140.18,94.14z M145.14,91.86l-2.91,8.15l-0.46-0.18l2.94-8.13
					L145.14,91.86z M147.39,97.45c0.16,0.9-0.46,1.74-1.34,1.89c-0.88,0.15-1.74-0.42-1.9-1.33c-0.16-0.91,0.45-1.75,1.34-1.9
					C146.38,95.96,147.23,96.54,147.39,97.45z M144.77,97.91c0.09,0.54,0.63,0.9,1.17,0.81c0.54-0.09,0.92-0.62,0.83-1.16
					c-0.1-0.55-0.63-0.91-1.17-0.82C145.06,96.83,144.68,97.36,144.77,97.91z"/>
			</g>
		</g>
		<g>
			<g>
				<path class="st6" d="M103.23,102.84c-0.94-0.22-1.85-0.56-2.04-1.65c-0.18-1.02,0.45-1.85,1.38-2.15l-0.18-1.01l0.64-0.11
					l0.18,1.01c0.67-0.02,1.32,0.32,1.71,0.86l-0.56,0.53c-0.25-0.31-0.6-0.59-1.02-0.6l0.42,2.42c1.02,0.25,1.95,0.6,2.15,1.78
					c0.19,1.09-0.4,2.13-1.41,2.53l0.19,1.08l-0.64,0.11l-0.18-1.02c-1.05,0.13-2.05-0.55-2.41-1.54l0.74-0.36
					c0.2,0.66,0.84,1.19,1.53,1.12L103.23,102.84z M102.7,99.82c-0.49,0.19-0.8,0.72-0.7,1.26c0.09,0.54,0.62,0.76,1.07,0.89
					L102.7,99.82z M104.37,105.66c0.57-0.31,0.85-0.93,0.74-1.57c-0.11-0.63-0.65-0.9-1.19-1.06L104.37,105.66z"/>
			</g>
		</g>
		<g>
			<g>
				<path class="st6" d="M62.28,105.67l0,2.06l1.19-0.21l-0.01-2.06l0.76-0.13l0.01,2.06l0.89-0.15l0.13,0.77l-1.01,0.17l0.01,1.73
					l0.97-0.17l0.13,0.77l-1.11,0.19l-0.01,2.26l-0.73,0.13l0-2.25l-1.18,0.2l-0.03,2.26l-0.72,0.12l0-2.25l-0.98,0.17l-0.13-0.77
					l1.11-0.19l-0.01-1.73l-1.03,0.18l-0.13-0.77l1.14-0.2l0-2.06L62.28,105.67z M62.32,110.24l1.18-0.2l-0.01-1.73l-1.18,0.2
					L62.32,110.24z"/>
			</g>
		</g>
		<g>
			<g>
				<path class="st6" d="M23.73,114.13l0.66-0.11l-0.05,2.46c-0.01,0.32-0.05,0.83,0.27,0.77c0.43-0.07,0.88-1.08,0.77-1.97
					c-0.19-1.66-1.52-2.41-3.04-2.15c-1.66,0.29-2.64,1.76-2.35,3.46c0.31,1.79,1.85,2.74,3.53,2.45c0.77-0.13,1.36-0.39,1.71-0.74
					l0.73,0.36c-0.59,0.45-1.27,0.87-2.4,1.06c-2,0.35-3.88-0.91-4.25-3.02c-0.36-2.07,0.94-3.91,2.93-4.26
					c0.82-0.14,1.62-0.02,2.33,0.42c0.73,0.44,1.26,1.09,1.41,1.96c0.13,0.77,0.05,1.51-0.24,2.06c-0.35,0.67-0.85,0.99-1.3,1.05
					c-0.26,0.04-0.48-0.14-0.6-0.48c-0.26,0.37-0.61,0.69-1.17,0.79c-0.82,0.14-1.7-0.48-1.86-1.44c-0.19-1.12,0.36-2.33,1.52-2.53
					c0.48-0.08,0.9,0.02,1.35,0.44L23.73,114.13z M22.67,117.59c0.83-0.14,1.04-0.9,1.01-1.58c-0.04-0.76-0.53-1.21-1.17-1.09
					c-0.75,0.13-1.17,1.01-1.05,1.73C21.58,117.28,22.01,117.7,22.67,117.59z"/>
			</g>
		</g>
		<g>
			<g>
				<path class="st6" d="M-16.71,126.54c0.05,0.29-0.14,0.57-0.43,0.62c-0.29,0.05-0.56-0.15-0.61-0.44
					c-0.05-0.28,0.14-0.55,0.43-0.6C-17.03,126.07-16.76,126.26-16.71,126.54z M-18.76,120.07l0.76-0.13l0.97,5.61l-0.76,0.13
					L-18.76,120.07z"/>
			</g>
		</g>
		<circle class="st8" cx="-20.29" cy="96.38" r="1.39"/>
		<circle class="st6" cx="-22.62" cy="94.66" r="0.49"/>
		<circle class="st6" cx="-20.79" cy="93.52" r="0.49"/>
		<circle class="st6" cx="-18.62" cy="94.15" r="0.49"/>
		<circle class="st6" cx="-17.36" cy="96.07" r="0.49"/>
		<circle class="st6" cx="-17.92" cy="98.17" r="0.49"/>
		<circle class="st6" cx="-19.8" cy="99.23" r="0.49"/>
		<circle class="st6" cx="-21.95" cy="98.72" r="0.49"/>
		<circle class="st6" cx="-23.19" cy="96.88" r="0.49"/>
		<circle class="st8" cx="21.44" cy="89.15" r="1.39"/>
		<line class="st19" x1="20.76" y1="85.24" x2="21" y2="86.61"/>
		<line class="st19" x1="23.85" y1="86.15" x2="22.89" y2="87.16"/>
		<line class="st19" x1="25.46" y1="88.43" x2="24.1" y2="88.72"/>
		<line class="st19" x1="24.66" y1="91.31" x2="23.54" y2="90.48"/>
		<line class="st19" x1="22.09" y1="92.89" x2="21.85" y2="91.52"/>
		<line class="st19" x1="19.33" y1="92.2" x2="20.18" y2="91.1"/>
		<line class="st19" x1="17.73" y1="89.8" x2="19.1" y2="89.56"/>
		<line class="st19" x1="18.48" y1="86.78" x2="19.5" y2="87.72"/>
		<path class="st19" d="M62.47,81.58l-4.82,0.83c-0.12,0.02-0.23-0.06-0.25-0.18l-0.4-2.34c-0.02-0.12,0.06-0.23,0.18-0.25
			l4.82-0.83c0.12-0.02,0.23,0.06,0.25,0.18l0.4,2.34C62.67,81.44,62.59,81.56,62.47,81.58z"/>
		<path class="st20" d="M64.62,84.82l-4.01,0.69c-0.11,0.02-0.22-0.06-0.24-0.17l-0.29-1.67c-0.02-0.11,0.06-0.22,0.17-0.24
			l4.01-0.69c0.11-0.02,0.22,0.06,0.24,0.17l0.29,1.67C64.81,84.69,64.73,84.8,64.62,84.82z"/>
		<path class="st21" d="M69.11,83.1L66,83.64c-0.11,0.02-0.22-0.06-0.24-0.17l-0.74-4.26c-0.02-0.11,0.06-0.22,0.17-0.24l3.1-0.54
			c0.11-0.02,0.22,0.06,0.24,0.17l0.74,4.26C69.29,82.98,69.22,83.08,69.11,83.1z"/>
		<path class="st22" d="M102.34,74.41l-1.91,0.33c-0.08,0.01-0.16-0.04-0.17-0.12l-0.33-1.91c-0.01-0.08,0.04-0.16,0.12-0.17
			l1.91-0.33c0.08-0.01,0.16,0.04,0.17,0.12l0.33,1.91C102.47,74.32,102.42,74.4,102.34,74.41z"/>
		<path class="st22" d="M106.03,73.77l-1.91,0.33c-0.08,0.01-0.16-0.04-0.17-0.12l-0.33-1.91c-0.01-0.08,0.04-0.16,0.12-0.17
			l1.91-0.33c0.08-0.01,0.16,0.04,0.17,0.12l0.33,1.91C106.17,73.68,106.11,73.76,106.03,73.77z"/>
		<path class="st22" d="M109.89,73.11l-1.91,0.33c-0.08,0.01-0.16-0.04-0.17-0.12l-0.33-1.91c-0.01-0.08,0.04-0.16,0.12-0.17
			l1.91-0.33c0.08-0.01,0.16,0.04,0.17,0.12l0.33,1.91C110.02,73.01,109.97,73.09,109.89,73.11z"/>
		<path class="st22" d="M102.99,78.18l-1.91,0.33c-0.08,0.01-0.16-0.04-0.17-0.12l-0.33-1.91c-0.01-0.08,0.04-0.16,0.12-0.17
			l1.91-0.33c0.08-0.01,0.16,0.04,0.17,0.12l0.33,1.91C103.12,78.09,103.07,78.17,102.99,78.18z"/>
		<path class="st22" d="M106.68,77.54l-1.91,0.33c-0.08,0.01-0.16-0.04-0.17-0.12l-0.33-1.91c-0.01-0.08,0.04-0.16,0.12-0.17
			l1.91-0.33c0.08-0.01,0.16,0.04,0.17,0.12l0.33,1.91C106.82,77.45,106.76,77.53,106.68,77.54z"/>
		<path class="st22" d="M110.54,76.87l-1.91,0.33c-0.08,0.01-0.16-0.04-0.17-0.12l-0.33-1.91c-0.01-0.08,0.04-0.16,0.12-0.17
			l1.91-0.33c0.08-0.01,0.16,0.04,0.17,0.12l0.33,1.91C110.67,76.78,110.62,76.86,110.54,76.87z"/>
		<polygon class="st7" points="230.42,51.49 231.03,54.78 227.5,53.79 		"/>
		<polygon class="st7" points="233.66,50.74 234.26,54.03 230.73,53.04 		"/>
		<polygon class="st7" points="314.1,36.91 314.64,40.21 317.63,38.09 		"/>
		<polygon class="st7" points="310.81,37.29 311.34,40.59 314.34,38.48 		"/>
		<polygon class="st7" points="268.99,44.81 269.53,48.11 272.52,46 		"/>
		<g>
			<g>
				<path class="st6" d="M274.86,47.14L274,47.28l-0.66-3.96l0.86-0.14L274.86,47.14z M276.57,46.85L275.71,47l-0.66-3.96l0.86-0.14
					L276.57,46.85z"/>
			</g>
		</g>
		<path class="st7" d="M357.06,29.03c-0.66,0.95-1.06,1.46-2.15,1.84c0.25,1.43,0.13,0.74,0.25,1.43c1.51,0.22,1.51,0.22,2.65,1.04
			C357.4,31.03,357.06,29.03,357.06,29.03z"/>
	</g>
</g>
</svg>
